SDDS1
&description text="6D Gaussian electron beam. Energy=1 GeV, sigma_z=200 ps (RMS), delta=0.25% (RMS), eps_N=5 mm-mrad, beta=10 m." &
&parameter name=TotalParticles type=long description="Number of macroparticles" fix=1000 &
&parameter name=Energy type=double units=GeV description="Mean beam energy" fix=1.0 &
&parameter name=NormEmittance type=double units=mm*mrad description="Normalized emittance" fix=5.0 &
&parameter name=BetaFunction type=double units=m description="Beta function at location" fix=10.0 &
&parameter name=SigmaX type=double units=m description="RMS horizontal beam size" fix=1.598e-4 &
&parameter name=SigmaXp type=double units=rad description="RMS horizontal divergence" fix=1.598e-5 &
&parameter name=SigmaY type=double units=m description="RMS vertical beam size" fix=1.598e-4 &
&parameter name=SigmaYp type=double units=rad description="RMS vertical divergence" fix=1.598e-5 &
&parameter name=SigmaZ type=double units=m description="RMS bunch length" fix=6.0e-2 &
&parameter name=SigmaDp type=double description="RMS momentum spread" fix=2.5e-3 &
&column name=x type=double units=m description="Horizontal position" &
&column name=xp type=double units=rad description="Horizontal angle (px/pz)" &
&column name=y type=double units=m description="Vertical position" &
&column name=yp type=double units=rad description="Vertical angle (py/pz)" &
&column name=z type=double units=m description="Longitudinal position (head-tail, positive = ahead)" &
&column name=dP type=double description="Relative momentum deviation (p-p0)/p0" &
&data mode=ascii
 8.593050e-05  2.039133e-05  -1.740756e-04  3.640216e-05  -3.873202e-02  -7.477488e-04
 2.448129e-07  2.692421e-05  1.861321e-04  1.696620e-05  -2.412591e-02  1.848150e-03
 -1.510489e-05  -1.698960e-05  -1.252615e-04  -6.386282e-06  -1.265489e-01  1.112106e-03
 2.606557e-04  -1.947137e-05  2.536813e-04  4.309110e-06  -1.128038e-02  1.551050e-03
 7.683122e-06  -2.715066e-05  -2.785784e-07  1.551586e-05  -5.517769e-02  2.001430e-05
 -3.593276e-05  2.786763e-05  2.104908e-04  2.141050e-05  -5.518397e-02  3.094526e-03
 -8.341838e-05  -6.542138e-06  1.808224e-04  3.412507e-05  4.877433e-02  2.430499e-03
 3.445666e-05  4.214848e-06  2.590041e-04  8.906906e-06  -9.457949e-02  -3.631674e-03
 -8.729598e-05  1.566432e-05  9.318592e-05  2.578518e-05  3.144082e-02  4.495329e-04
 6.347115e-05  -1.311290e-05  1.887312e-04  -6.016195e-06  2.632603e-02  -1.217938e-03
 7.957287e-06  8.773907e-06  6.336074e-05  1.972414e-05  7.640508e-02  -3.801082e-03
 -1.905949e-04  1.532450e-05  -1.344302e-04  3.227026e-05  4.785246e-02  6.715627e-04
 6.562313e-05  2.179286e-05  5.973069e-06  -3.673772e-06  -1.146886e-02  1.159506e-03
 -1.362380e-04  2.886686e-07  2.806054e-04  1.930261e-05  2.221278e-02  1.473067e-03
 -1.995396e-04  1.753133e-06  1.492913e-04  -1.128692e-05  5.632123e-02  5.153557e-04
 2.590410e-04  -1.309934e-05  1.163130e-04  1.694393e-05  -1.762552e-02  -5.005840e-03
 2.307932e-04  -1.513056e-05  -8.829815e-05  -1.138377e-06  -1.009698e-01  1.363624e-03
 -1.180986e-04  7.439943e-06  -3.068967e-04  -1.970677e-06  4.592963e-02  -1.325723e-03
 -7.308465e-07  6.747309e-06  1.141297e-04  -7.395142e-06  -2.809583e-02  -2.264485e-03
 -8.665377e-05  -4.430947e-06  -3.109819e-04  3.385539e-05  -1.853529e-02  -2.475136e-03
 -1.764275e-04  2.109973e-06  1.087933e-04  -1.139552e-05  -1.456220e-02  4.706186e-03
 -3.344407e-04  -6.684777e-07  2.244011e-04  9.979645e-06  -1.578416e-02  -6.922346e-04
 2.017089e-05  -6.637703e-06  1.569057e-04  -1.520455e-05  1.420770e-01  -1.162137e-03
 5.989820e-05  -2.418629e-06  -1.102258e-04  2.136421e-05  -1.043543e-02  2.488735e-03
 2.740631e-04  1.783389e-06  -7.841085e-05  -1.016584e-05  6.501472e-02  -6.336734e-04
 -2.833638e-04  3.272457e-05  -1.924350e-04  -1.354454e-05  5.726596e-02  -2.570449e-03
 -1.181581e-04  -1.871103e-05  -2.390626e-04  2.546617e-05  6.210334e-02  -2.293861e-03
 2.389045e-04  2.892901e-05  3.029003e-04  2.259456e-05  -6.201320e-02  -2.248166e-04
 -7.346763e-05  -1.433455e-05  7.068992e-05  -1.438753e-05  -7.952464e-03  3.111333e-03
 -1.280021e-04  -4.074634e-07  1.296602e-04  -1.510368e-05  -7.905211e-02  -2.407580e-04
 7.513973e-05  1.449637e-05  -4.615520e-05  -4.779455e-06  1.052777e-01  1.242877e-03
 3.684993e-04  1.238365e-05  -5.514163e-04  1.647757e-05  -2.945855e-02  -3.195137e-03
 -1.373799e-04  7.060295e-06  -1.720680e-04  -7.406020e-06  -1.731971e-06  2.885163e-03
 1.738491e-04  -6.699271e-06  -1.954993e-05  3.328098e-05  -3.303108e-02  2.601592e-03
 2.414060e-04  4.866959e-05  -2.233518e-06  -3.011747e-05  7.853352e-02  -2.383967e-03
 -2.857988e-04  7.806531e-06  -2.459022e-04  -2.919245e-05  4.482217e-02  4.316372e-03
 -1.298214e-04  -2.650356e-06  2.363983e-04  3.207909e-05  -1.151550e-01  -2.394871e-03
 2.381115e-04  -3.743519e-06  -1.508123e-04  1.152460e-05  1.243547e-01  -2.117235e-03
 -1.265600e-04  1.092361e-05  -6.696383e-05  3.204914e-05  1.223442e-01  8.437833e-05
 3.517273e-04  9.950642e-06  7.732720e-05  -1.536754e-06  -2.616818e-02  -2.527083e-03
 9.394542e-05  -2.464340e-05  6.694941e-06  3.753043e-06  5.605475e-02  1.956178e-03
 -2.111405e-04  -1.570083e-05  3.834612e-05  -1.667571e-05  4.489811e-02  1.739501e-03
 2.645016e-04  -1.737407e-05  -1.655810e-04  1.961039e-06  -4.318570e-02  -6.665625e-04
 2.379794e-04  1.053600e-05  -1.595901e-04  2.958984e-06  1.561402e-02  -1.568234e-04
 1.398610e-04  1.123901e-05  -1.282407e-04  2.051849e-05  7.822337e-02  -4.362307e-04
 5.155626e-05  -2.227120e-05  -1.435026e-04  1.297852e-06  7.936195e-02  2.620825e-03
 -1.640646e-04  -1.074971e-06  -4.638164e-05  9.619041e-07  -5.654857e-02  1.050453e-04
 -8.091341e-05  -6.301789e-06  -7.661814e-05  -1.530285e-05  -5.805362e-02  -1.773129e-03
 1.442402e-04  -1.734510e-05  -7.385328e-05  4.089745e-06  -4.739099e-02  1.074075e-03
 -1.933661e-04  1.662263e-06  -6.891548e-05  1.876846e-05  1.091006e-01  1.658861e-03
 -1.446777e-05  -1.346626e-05  3.229891e-04  2.119123e-05  -1.203740e-01  -2.405292e-03
 9.069159e-05  1.378197e-05  6.859512e-05  -2.748764e-05  1.633886e-02  1.601303e-04
 6.925999e-05  1.580660e-05  1.468282e-04  2.445809e-05  7.766955e-03  1.005347e-03
 2.699936e-05  8.799694e-06  5.578822e-05  1.538393e-05  1.221007e-01  2.831666e-03
 9.281661e-05  2.976470e-05  -5.224442e-05  4.327641e-06  6.927228e-02  2.745291e-03
 3.432937e-05  -3.219356e-06  -2.389795e-04  -5.949690e-06  -9.518079e-02  3.692545e-03
 -4.878677e-05  2.331290e-05  2.284050e-05  9.085093e-07  2.787199e-02  8.495868e-04
 -5.706156e-05  -2.672360e-05  -1.488238e-04  1.293185e-05  -8.390696e-03  -3.936510e-05
 -1.560736e-04  -3.073487e-05  -1.219127e-05  7.730172e-06  1.350980e-03  -3.163053e-03
 -1.708466e-05  1.229764e-05  3.765635e-05  -4.427500e-06  1.710954e-02  -1.594462e-03
 -4.389783e-05  -1.578699e-05  5.053341e-05  -4.619495e-06  5.155248e-02  -6.368935e-04
 -3.579254e-05  -2.186966e-05  -2.025996e-04  -7.982830e-06  -6.317100e-02  -2.398248e-03
 4.801260e-05  -2.782543e-05  3.129310e-04  1.680879e-05  -1.496638e-02  7.735786e-04
 1.040613e-04  -3.534989e-06  2.961976e-04  1.303858e-06  -5.930179e-02  -1.915808e-03
 -1.403160e-04  -1.945890e-05  -1.242240e-05  6.508920e-06  -9.599328e-03  -2.231216e-03
 1.808952e-04  -1.283107e-05  -3.365662e-04  -2.908754e-05  5.726971e-02  1.428105e-03
 2.158534e-04  3.803230e-05  -1.340722e-04  -2.493983e-07  3.885618e-02  -1.902063e-03
 -3.848850e-05  -4.261686e-06  -1.064646e-04  2.092374e-06  -1.491102e-02  4.135475e-04
 -9.411662e-05  4.697016e-06  -1.751416e-05  1.216436e-05  -1.606122e-01  1.215253e-03
 -1.921206e-04  -7.078337e-06  -3.545237e-05  5.245768e-06  1.812913e-04  2.789889e-03
 -4.444317e-05  1.396272e-05  -6.000082e-05  1.912316e-05  7.350293e-02  -1.973906e-03
 1.211225e-04  3.197032e-05  9.527928e-05  -8.894048e-06  4.878509e-02  -4.410582e-03
 4.296687e-05  1.086352e-06  2.060197e-04  2.888416e-05  1.799185e-02  -1.932266e-03
 5.558197e-05  9.485578e-08  1.913073e-05  1.409844e-05  3.546977e-02  6.758598e-04
 -2.251332e-04  -2.233850e-05  7.551353e-05  -3.533736e-05  -4.087224e-02  -2.617293e-03
 -3.102314e-04  9.137472e-06  -6.329249e-05  -2.370823e-07  5.689628e-02  2.203498e-03
 3.297342e-04  -1.801112e-05  -2.777453e-04  1.273836e-05  -5.775381e-02  -3.616630e-04
 2.985646e-05  -2.291497e-05  2.636987e-05  1.588798e-05  5.529657e-02  -2.382104e-03
 -1.720922e-04  -5.779596e-08  -4.799434e-05  -2.113373e-05  -6.712920e-03  6.020404e-06
 -1.049183e-04  9.347016e-06  -1.155050e-04  -2.161693e-05  -3.794656e-02  2.210175e-05
 2.888796e-04  7.560275e-06  1.586310e-04  -2.073019e-05  -3.615699e-02  -7.062711e-04
 -6.404309e-05  3.000625e-05  2.492853e-04  2.449314e-05  3.994966e-02  1.144046e-03
 6.600766e-05  -2.117204e-05  -2.296115e-06  2.085328e-05  6.127807e-03  -3.222731e-03
 7.615894e-05  3.034319e-06  2.116896e-04  -2.310625e-05  -8.537572e-02  2.677319e-03
 -1.398014e-04  1.989440e-06  7.096751e-05  -1.110662e-05  7.779100e-02  4.650603e-03
 4.016123e-05  5.806623e-07  -2.562225e-05  3.922352e-06  -2.619262e-02  -2.328925e-03
 -4.275152e-04  1.436761e-05  1.545065e-04  7.151535e-06  -4.666904e-02  -2.054665e-03
 -1.097652e-04  4.573098e-06  -1.378282e-04  -1.520011e-06  -6.226766e-02  2.702869e-03
 -1.744065e-04  7.468248e-06  1.107551e-04  -3.681739e-06  -2.678361e-02  4.015503e-03
 -9.639291e-05  -3.698002e-06  -1.133618e-05  1.373447e-06  -4.692794e-02  5.423904e-03
 -9.665598e-05  -9.905980e-06  -4.192332e-05  4.345126e-06  2.936830e-02  -2.144393e-04
 -2.649160e-05  -2.853616e-06  -1.004803e-04  -5.140309e-06  2.833160e-02  3.053108e-04
 -1.297769e-04  -4.451913e-06  2.632439e-05  1.830561e-05  -8.081061e-02  2.128676e-03
 4.467995e-05  -2.691815e-06  -2.438564e-04  -4.061076e-06  5.301206e-02  -1.056891e-03
 1.159938e-04  -3.431502e-05  -2.083076e-04  1.209769e-05  1.683432e-02  2.393968e-03
 3.836944e-04  8.543668e-06  -9.305507e-05  -1.172019e-05  1.183004e-03  8.300307e-04
 4.982444e-05  -6.925511e-06  -2.855839e-04  -3.268603e-05  1.272169e-01  5.152077e-03
 -3.176537e-04  -2.537042e-05  1.878090e-04  -2.105060e-05  -4.745517e-02  3.923400e-03
 -7.929423e-05  1.599393e-05  -2.338257e-04  8.077948e-06  2.774252e-02  -1.869556e-03
 1.611219e-06  8.625682e-06  -8.351520e-06  -6.708516e-06  -7.846970e-02  1.497622e-03
 5.624001e-05  5.081083e-06  -6.872975e-05  6.102272e-06  -3.312295e-02  -5.155075e-06
 3.066542e-05  -2.195614e-05  8.227801e-05  -3.212380e-05  -7.594376e-02  -1.174963e-03
 3.085988e-04  -9.053334e-06  -1.524999e-04  6.311061e-06  1.231331e-01  7.622321e-06
 -9.865473e-05  -1.236806e-05  3.488940e-05  -8.135726e-06  -5.861491e-02  1.841376e-03
 -8.127536e-05  2.883148e-05  -1.197671e-05  3.541337e-06  -5.390026e-02  4.165504e-03
 2.141097e-04  3.682087e-05  2.921709e-05  7.409955e-06  7.046234e-03  -9.949755e-04
 2.855830e-05  1.845772e-06  2.742531e-04  -1.469752e-05  1.467786e-02  -1.932748e-03
 8.701236e-05  -1.716633e-05  1.632808e-04  8.313910e-06  -1.105550e-03  -2.733369e-03
 -5.229642e-04  -1.100943e-05  -7.501961e-05  -2.854059e-06  4.587678e-03  -1.168311e-03
 4.276838e-05  -1.091538e-05  2.241974e-04  -3.716531e-05  1.775990e-02  -2.810396e-03
 2.427558e-04  -1.385089e-05  1.454694e-04  3.310577e-06  4.495424e-02  -2.773203e-03
 9.069943e-05  2.301815e-05  2.386594e-04  1.521931e-05  2.788015e-02  4.825773e-03
 1.648723e-04  -3.397345e-05  -5.397986e-05  -2.641377e-05  -2.806173e-02  4.516704e-03
 2.565449e-04  7.395874e-06  1.812032e-05  -3.708936e-05  -4.950764e-03  -3.690405e-04
 1.612176e-04  -1.814569e-07  -2.905120e-04  -7.522145e-06  8.614463e-02  -2.531503e-04
 9.097797e-05  -1.052053e-05  -6.068598e-05  -1.287120e-05  5.874075e-02  -5.929389e-04
 1.409036e-04  -8.389466e-08  1.979660e-04  1.125783e-05  -5.599633e-02  -2.304789e-04
 2.149444e-04  -1.694867e-05  1.261731e-04  8.187168e-06  -2.320258e-02  4.906552e-04
 1.021185e-04  -4.347816e-06  8.777657e-05  2.795904e-05  -3.678052e-02  -1.661089e-03
 -2.721776e-05  2.118581e-05  6.381611e-05  -1.377166e-05  -5.203685e-02  -1.944134e-03
 -3.957505e-05  -1.524744e-05  -8.033268e-06  -2.455139e-06  5.891638e-02  2.061843e-04
 -1.622506e-04  -7.240790e-07  6.681077e-05  4.737373e-06  -1.024402e-01  1.395636e-03
 -1.104239e-04  -3.165502e-06  3.004185e-04  -1.291159e-05  -6.104578e-02  -3.912687e-03
 -2.538286e-04  -1.232589e-05  -1.021170e-04  6.054930e-06  2.909771e-02  -3.182360e-03
 2.474818e-04  1.549602e-05  -2.933433e-04  3.332230e-07  5.246480e-02  -2.981259e-03
 -5.214424e-05  2.193522e-05  1.236447e-04  -3.318758e-05  -7.363789e-02  -4.666158e-04
 -7.871854e-05  5.697169e-06  1.990756e-04  -2.007409e-05  -7.447431e-03  -2.377357e-04
 8.777448e-05  -1.698453e-05  -5.795565e-06  1.047633e-05  9.965893e-02  -8.810980e-04
 -5.401643e-05  1.214474e-06  3.347577e-04  9.665199e-06  -8.910095e-02  -3.756007e-03
 1.994110e-04  -3.113728e-05  7.360642e-05  -1.892830e-06  -3.363017e-03  -1.142901e-03
 -4.709728e-04  1.740651e-05  -2.082970e-04  -1.245222e-05  -4.075487e-02  -2.854284e-05
 1.492467e-04  2.821883e-05  5.561302e-05  -6.669416e-06  -1.372471e-01  -5.645362e-04
 -5.190049e-05  -1.268801e-05  -1.676998e-04  -4.622436e-07  -2.607600e-02  2.221771e-04
 -1.988044e-05  -2.358667e-05  -1.173784e-05  -1.207224e-05  8.089002e-02  2.977080e-03
 5.914307e-05  -5.736539e-06  -7.888166e-05  -2.808557e-05  -6.461723e-02  3.462965e-05
 1.074835e-04  -7.964609e-06  -6.836907e-05  2.469446e-06  -1.171725e-01  -1.399094e-03
 1.367047e-04  3.917402e-06  -3.125266e-05  2.228434e-05  8.966336e-03  4.161248e-05
 -1.957693e-04  -1.465689e-05  -1.665197e-05  -1.309002e-05  1.055948e-01  1.735152e-03
 -1.442230e-04  -3.670143e-06  -7.966283e-05  9.544733e-06  -3.367416e-03  -2.819173e-03
 1.717870e-04  8.340924e-06  -1.611402e-04  6.019716e-06  4.757322e-02  -1.026250e-03
 -8.759619e-07  -8.055425e-06  -2.052604e-04  7.395850e-06  4.034092e-03  5.142024e-04
 5.399524e-05  -4.382058e-06  -1.402324e-04  4.197203e-06  -5.379603e-02  4.006977e-03
 -1.080038e-04  -2.293008e-06  1.290509e-04  5.074188e-06  2.594357e-02  2.823189e-03
 -6.019778e-06  -2.965535e-06  8.485183e-06  1.075416e-06  7.176486e-02  1.281041e-03
 -1.506645e-04  -1.942304e-05  2.813557e-04  9.149166e-07  8.939759e-02  -1.417128e-03
 2.010269e-04  5.238614e-06  -7.086695e-05  -2.681219e-05  5.486684e-02  -1.158552e-03
 -1.368451e-04  2.283436e-05  5.780296e-05  6.732578e-06  -9.661144e-03  9.427595e-04
 -1.295079e-05  -8.446330e-06  2.055471e-04  -1.902920e-05  7.205009e-02  -9.475787e-04
 -7.408898e-05  2.219574e-05  6.050182e-07  1.106261e-05  -4.079809e-02  2.510686e-03
 1.523326e-04  -1.243842e-05  -9.253248e-06  8.022949e-07  -3.952248e-02  3.238785e-03
 3.693770e-05  1.068743e-05  -3.338738e-04  1.149823e-06  -5.933459e-02  -1.650416e-03
 2.110475e-04  1.094099e-05  2.725816e-04  -2.755705e-06  -3.455140e-02  -5.860281e-04
 -2.198339e-04  -2.530930e-05  -1.675316e-04  -3.379033e-05  -3.513168e-02  8.294026e-04
 -3.691270e-05  -1.112111e-05  4.103953e-04  -9.231024e-06  -7.744871e-02  1.854387e-03
 -3.756784e-04  -5.901258e-06  -1.164824e-04  -2.920281e-06  2.117257e-02  2.303177e-03
 5.929189e-05  2.035598e-05  -1.610068e-04  2.459266e-05  -1.565870e-02  2.584979e-03
 -9.433681e-05  1.386152e-05  -3.810979e-05  1.469505e-05  -3.650326e-02  -2.817431e-03
 -7.621101e-05  1.023603e-05  2.709955e-05  1.141661e-05  -5.731813e-02  2.303080e-03
 -1.061220e-05  7.782311e-06  -1.190429e-05  1.855699e-05  4.555304e-02  7.426082e-03
 -5.016586e-06  6.005689e-07  1.014627e-04  -3.049968e-05  -6.904425e-02  1.641003e-03
 2.161976e-04  2.048014e-05  -2.842722e-05  -1.099777e-05  -3.289209e-02  -1.876559e-03
 3.092440e-05  8.732457e-06  1.752935e-04  1.634290e-05  4.202623e-02  3.166443e-03
 -2.014417e-04  2.044483e-05  -5.884284e-05  -7.850097e-06  5.792996e-02  -2.590702e-03
 -8.835491e-06  9.739415e-06  -5.608179e-05  -1.333027e-05  -5.942477e-02  -1.167983e-03
 -2.408755e-04  -2.554453e-05  -1.211118e-04  2.207038e-06  -1.235281e-01  -3.429486e-03
 -1.294293e-04  -8.604510e-07  1.153571e-04  -3.730872e-05  -3.434049e-02  -3.584716e-03
 3.891829e-04  -1.064033e-06  3.976789e-04  6.234790e-06  -6.055294e-02  2.367245e-04
 3.036567e-04  -1.243574e-05  3.269765e-04  -5.560223e-07  5.628857e-02  -2.172839e-03
 -1.158611e-04  2.298208e-05  -2.767303e-04  -3.389318e-05  -1.079093e-02  -1.831625e-03
 -2.777337e-05  4.878450e-06  1.453570e-04  2.855490e-05  1.073082e-01  2.762915e-03
 2.894644e-04  -9.220798e-06  2.472794e-04  1.191884e-07  -1.995055e-03  -1.487595e-03
 1.893964e-05  -1.310784e-05  1.348546e-04  3.000952e-06  1.260673e-01  1.891675e-04
 1.049899e-04  1.667660e-06  -1.368047e-04  2.972753e-05  -8.131420e-02  2.225039e-03
 -2.145698e-04  -3.410832e-05  -1.759968e-04  8.052054e-06  8.500819e-02  -4.925062e-03
 -1.754546e-04  -2.265118e-05  -1.663763e-04  -1.079846e-05  5.341434e-02  4.848510e-04
 -8.638916e-05  7.462117e-06  2.019484e-04  8.747968e-06  3.562793e-03  8.843026e-04
 1.275328e-04  7.481589e-06  -1.203429e-04  1.483552e-05  5.764721e-03  4.140402e-03
 1.226217e-05  -1.902144e-05  -2.310759e-04  7.715666e-06  5.573983e-02  -3.041213e-03
 1.567886e-04  1.098899e-05  3.332640e-07  1.339534e-05  1.574636e-02  -5.873820e-04
 -7.526436e-05  2.957337e-05  -1.093372e-04  7.874865e-06  1.031506e-01  9.109535e-04
 1.148330e-04  3.730380e-07  2.847794e-04  -1.299231e-05  -1.917222e-02  -2.934907e-03
 2.866817e-05  6.287832e-06  -2.949676e-05  2.900741e-06  8.693184e-02  -4.911028e-04
 -4.166275e-04  -1.988013e-05  2.421511e-04  -3.374334e-06  -1.537052e-02  -6.326126e-04
 1.441508e-04  -2.291773e-05  3.181461e-04  -1.785730e-05  5.916079e-02  -1.495204e-03
 -2.357921e-04  -2.748413e-05  2.739449e-04  -1.221200e-05  -1.952492e-02  6.512750e-04
 -1.301677e-04  -1.473635e-05  -4.167304e-05  3.671415e-06  -5.614379e-04  9.831173e-04
 1.126746e-04  1.512768e-05  -1.762341e-05  -2.552007e-05  -5.322812e-02  -8.167183e-04
 -3.819336e-04  -5.363313e-06  9.107488e-05  -7.777626e-06  -1.116158e-01  3.241430e-03
 8.058114e-05  2.171543e-05  3.892937e-05  1.865910e-06  8.526129e-02  1.151878e-03
 -4.287043e-05  5.387226e-05  -1.946640e-04  -5.607503e-06  -6.574770e-02  -1.181967e-03
 3.628708e-05  1.076240e-06  7.123083e-05  -1.652733e-05  3.581556e-02  2.907210e-05
 1.943665e-04  6.777876e-06  3.604334e-04  -5.600809e-06  -2.795329e-02  8.313442e-05
 7.088792e-05  -1.948561e-05  -6.688688e-05  -1.870045e-05  -2.287236e-02  -3.528463e-04
 -7.817690e-06  7.618894e-07  2.947034e-04  2.385216e-05  -1.506741e-02  3.129457e-03
 -9.821375e-05  -2.185332e-05  7.995322e-05  1.250158e-05  -3.068199e-03  5.145338e-04
 -1.515287e-05  -2.638001e-05  -2.902968e-04  -7.552619e-06  8.080190e-02  1.079150e-03
 1.000607e-04  3.724471e-07  -1.238063e-04  -3.019220e-06  -2.793219e-02  -1.277206e-03
 7.521299e-06  -1.642287e-05  -1.086893e-04  4.950187e-05  -6.935329e-02  6.339482e-04
 5.306262e-05  -1.384424e-06  -1.850701e-05  -7.064503e-06  5.848109e-02  4.742989e-04
 -5.189887e-05  -1.331504e-05  1.009558e-04  3.422563e-05  -1.334814e-01  1.425047e-03
 -5.793238e-05  2.992316e-05  2.536229e-04  2.641899e-05  1.102834e-02  -3.126558e-03
 1.287608e-04  1.913670e-05  5.720589e-05  -1.365841e-05  1.191997e-01  -2.601551e-03
 1.791953e-04  -9.142709e-06  4.623293e-05  3.122654e-06  2.948220e-02  -4.146695e-04
 5.121992e-04  -3.714148e-06  -1.216265e-04  -1.493658e-05  1.010686e-02  2.100497e-03
 -4.183819e-05  3.239375e-05  1.142371e-05  -8.441309e-06  4.215948e-02  -1.960968e-04
 -2.018223e-04  -2.322573e-05  -3.223735e-06  -1.854060e-05  -4.623812e-02  -1.557078e-03
 -6.944066e-05  1.647859e-05  -2.865087e-05  -6.014908e-06  8.349865e-02  -1.225088e-03
 -1.294841e-04  -1.362299e-06  8.329222e-05  -1.698253e-05  1.972368e-02  -5.734322e-03
 -1.497759e-04  2.454101e-05  -3.715302e-05  2.195172e-06  9.490573e-03  -2.833023e-03
 -2.671499e-04  8.505986e-06  -1.251691e-04  7.919563e-06  7.527606e-02  -2.810913e-03
 -2.324973e-04  5.276529e-06  4.876439e-05  -2.201055e-05  -3.277228e-02  2.727039e-04
 -3.470650e-04  2.357461e-05  1.746172e-04  -2.546588e-07  3.290720e-02  4.652456e-03
 -5.933116e-05  1.895013e-05  2.544716e-05  1.009370e-05  -1.099175e-02  9.820223e-04
 -6.080290e-05  -8.203228e-06  8.781546e-05  -5.342782e-06  7.867604e-02  1.750048e-03
 5.880163e-06  3.038835e-05  1.697835e-04  -9.146481e-06  5.572669e-02  -9.680548e-04
 3.870947e-05  3.629354e-06  -9.220306e-05  2.122156e-05  2.578331e-04  1.973463e-03
 -1.162693e-04  9.532409e-06  2.280889e-04  6.811074e-06  -6.174543e-02  3.274239e-03
 -6.906273e-05  -1.274946e-06  1.148776e-04  2.085881e-05  4.611393e-02  9.684020e-04
 2.524177e-04  -1.120043e-05  3.823935e-05  -6.053956e-06  -8.830628e-03  -1.015297e-03
 1.430414e-05  -2.343090e-05  -2.676152e-05  -1.029841e-05  1.300382e-02  -5.999820e-03
 4.653113e-05  -7.524127e-06  3.914294e-05  -4.753575e-06  -1.117033e-02  -3.090718e-03
 -1.261228e-04  1.939491e-05  -2.108103e-05  -9.583962e-06  1.667234e-01  4.462448e-03
 1.100373e-04  -1.214780e-05  3.608206e-05  -1.285688e-05  9.609317e-02  -5.227421e-03
 -9.165864e-05  1.320194e-05  -1.660873e-04  -2.677411e-05  2.358317e-02  -2.130624e-04
 -6.686878e-05  -7.674673e-06  -1.169723e-04  3.810700e-06  -1.354029e-01  -2.408598e-03
 -1.126057e-04  1.167084e-05  -4.086563e-05  -4.027004e-06  -3.701442e-02  1.382447e-04
 -2.287462e-05  2.830085e-05  2.412579e-04  1.400103e-05  1.837931e-02  -3.791644e-03
 -7.122113e-05  -1.420196e-05  -1.791475e-04  3.871711e-06  8.223787e-02  -2.867578e-04
 3.346288e-05  1.924638e-06  -1.516284e-04  4.110398e-06  3.873980e-02  3.847792e-04
 -9.622464e-05  -1.668435e-05  -2.120717e-04  -3.098022e-05  6.170329e-02  -4.925795e-03
 -9.845551e-05  -7.814316e-07  1.564827e-05  2.715101e-05  1.215906e-01  4.238475e-03
 2.363022e-04  1.560620e-05  2.233690e-04  1.409181e-05  -4.852108e-02  -1.135452e-03
 -8.625672e-05  5.725086e-06  7.481729e-05  7.493092e-06  -4.846044e-02  1.227933e-03
 8.386263e-05  4.410367e-06  -3.698826e-05  -2.703577e-05  -9.836546e-02  -1.691890e-03
 3.755275e-05  1.511513e-05  2.105442e-04  4.807462e-06  -5.579729e-02  1.081610e-03
 9.895385e-05  1.345771e-05  -2.070541e-04  1.667619e-06  -1.326783e-01  1.885388e-03
 -1.884740e-04  -2.065838e-05  -1.318070e-04  -1.693739e-05  7.216169e-02  4.026105e-04
 -2.359802e-04  -7.893490e-06  -1.993842e-04  -1.117541e-05  -2.186820e-02  5.417143e-04
 -2.033090e-04  -4.868606e-05  -1.708464e-04  2.094105e-05  1.146920e-01  1.035542e-03
 2.412400e-05  1.243412e-05  -2.868165e-04  6.420946e-06  8.705263e-02  2.590683e-03
 -1.137827e-04  1.081973e-05  -1.777503e-04  2.436491e-06  5.438931e-02  2.262190e-03
 9.342377e-05  5.651905e-06  -7.420841e-05  1.330281e-05  8.141432e-02  -2.286984e-03
 -9.249919e-05  -6.170844e-06  -1.966502e-04  1.918466e-06  8.150021e-02  -4.485502e-04
 6.627043e-05  1.730273e-05  2.505649e-05  -9.597809e-06  -1.581614e-01  3.546914e-05
 3.157511e-04  2.190960e-05  -1.238689e-04  -1.715023e-06  9.950571e-02  1.185257e-03
 -4.501015e-05  1.631802e-07  -2.417973e-04  -7.975180e-06  8.500441e-02  -1.214688e-03
 -1.007756e-05  3.031192e-05  1.311563e-04  -4.380307e-06  1.438317e-02  -1.641955e-03
 -1.429426e-04  3.145316e-05  2.805141e-04  -1.339544e-06  -1.006407e-01  -6.252641e-05
 -5.530541e-05  3.679552e-06  6.168810e-05  6.438807e-07  -2.453590e-02  2.735862e-03
 8.038393e-05  7.652724e-06  -3.396731e-05  6.731626e-06  -9.581607e-02  -1.423896e-03
 -1.722199e-04  -3.644669e-05  1.191222e-04  1.098283e-05  -4.267766e-02  -1.246562e-03
 -1.227615e-04  -3.335823e-05  7.607067e-05  8.395750e-06  -4.882826e-02  -1.808900e-03
 3.465576e-05  -1.385774e-05  2.459543e-05  2.971979e-05  1.682952e-02  4.994197e-03
 2.667169e-04  2.011630e-06  7.730297e-05  1.337691e-05  -7.366146e-03  7.395593e-04
 1.132608e-04  1.971239e-06  -5.502182e-05  1.599283e-05  4.527281e-03  -1.045904e-03
 1.311821e-04  -8.352530e-06  -4.363458e-05  9.811261e-06  -1.825348e-02  1.614381e-03
 -4.729461e-04  -6.058538e-06  1.571292e-04  3.018808e-05  2.072586e-02  -4.475445e-03
 1.348150e-04  -2.236417e-05  1.093003e-04  1.048325e-05  -2.125980e-02  1.281633e-03
 -4.187764e-06  -4.103550e-05  -1.624452e-04  -1.105581e-05  8.914691e-02  -6.526266e-03
 9.785151e-05  1.290051e-05  1.320620e-04  -1.667779e-05  -4.600105e-02  2.057149e-03
 7.574406e-05  2.934824e-06  1.838293e-05  2.559588e-05  -1.392505e-02  3.079543e-03
 2.029486e-04  -1.163719e-05  -1.076215e-04  -1.168886e-05  2.549708e-02  -1.140547e-04
 6.494545e-05  -1.060464e-05  -4.077502e-05  -3.907208e-06  -1.464768e-01  -4.315576e-04
 7.127546e-05  6.998368e-06  6.762098e-06  -6.152305e-07  -8.493223e-02  -8.666198e-04
 9.071968e-05  -1.469310e-05  -1.095689e-04  3.412655e-05  -6.026775e-02  1.490856e-03
 -2.908553e-05  1.196038e-05  -1.515407e-04  -4.851507e-06  3.499269e-02  -2.440881e-03
 -1.820598e-04  -7.915866e-06  -1.231723e-04  2.248702e-05  4.965375e-02  -1.059914e-03
 1.950655e-04  4.807173e-06  2.063172e-04  6.521757e-06  -6.012288e-02  2.257998e-04
 2.957563e-05  2.075968e-05  -2.857705e-04  2.654661e-06  -3.585168e-02  3.819497e-03
 -1.914509e-04  -3.742150e-06  4.285097e-05  5.303660e-06  5.029362e-02  -4.600999e-03
 2.442224e-04  2.773370e-06  -7.921257e-05  7.664442e-06  -6.346764e-02  -9.522453e-04
 -1.407017e-04  4.485201e-06  5.016401e-05  -1.248826e-05  -2.593215e-02  3.783591e-04
 2.298077e-04  -2.417724e-06  -6.432004e-05  3.614497e-06  3.886070e-02  -1.166467e-03
 7.170938e-05  -2.339107e-05  5.244648e-05  -4.794804e-06  -7.217882e-02  -1.602770e-03
 -3.179088e-05  7.625067e-06  -5.239801e-05  -1.188319e-06  2.531048e-02  -2.806855e-03
 -6.060127e-05  -4.421490e-06  2.297010e-05  6.026284e-06  1.645583e-02  -7.488299e-03
 3.632384e-04  -2.745359e-06  -8.118024e-05  1.075216e-05  -9.330943e-02  3.658339e-03
 1.184035e-05  3.048678e-05  1.556780e-04  3.797089e-06  -9.049714e-02  1.984039e-03
 1.678660e-04  3.340027e-05  -3.071609e-05  -3.521708e-05  9.613052e-02  -2.185887e-03
 -2.157110e-05  8.539674e-06  -1.404395e-04  -1.649768e-05  -5.094333e-02  -1.364364e-03
 -4.943687e-05  2.196983e-06  1.215724e-04  -2.761371e-05  -7.119026e-02  -5.075112e-04
 1.556559e-04  7.349531e-06  2.350525e-04  -1.431777e-05  -3.045493e-03  1.357398e-03
 1.209502e-04  9.052703e-07  -5.375563e-05  1.506129e-05  1.252168e-01  1.192095e-03
 1.591106e-04  -2.731969e-06  -2.361722e-04  2.472744e-06  3.313833e-02  -1.468681e-03
 -2.566810e-05  1.841464e-05  -1.821166e-05  2.415374e-05  -2.546650e-02  4.251469e-03
 1.032861e-04  2.927561e-05  4.547120e-05  -4.024990e-07  -1.027013e-01  1.942183e-03
 7.348190e-05  -1.626210e-08  -1.053020e-04  -5.939906e-06  5.727355e-03  2.959539e-03
 -2.267960e-04  -5.775258e-06  -2.095012e-05  1.465985e-05  5.567551e-03  -6.006518e-04
 6.655350e-05  2.070404e-05  2.364983e-04  -9.019223e-06  5.833388e-02  -1.902753e-03
 7.561708e-05  2.250632e-05  -3.481996e-05  1.423627e-05  -5.542402e-03  -4.961839e-03
 -4.540817e-05  -1.218841e-05  -1.670683e-04  4.196848e-06  -6.616726e-03  -7.453660e-04
 2.856058e-04  -8.606230e-06  -8.836817e-05  -5.313413e-06  1.463485e-02  6.965622e-04
 5.275207e-05  -5.239411e-06  -5.756837e-05  -1.804124e-06  -3.590467e-02  1.106404e-04
 -3.837869e-05  -1.813692e-05  1.412372e-04  1.991077e-05  1.116638e-01  -1.680242e-03
 -1.943841e-04  -3.941340e-06  2.067161e-04  1.483906e-05  4.690777e-02  2.959529e-03
 -1.177335e-04  -8.081691e-06  -1.293587e-04  -1.338731e-05  1.459334e-01  -1.787884e-03
 -2.249941e-05  1.732054e-05  -1.517069e-04  7.647219e-06  8.366032e-02  4.163221e-04
 -6.594197e-05  2.312170e-05  -1.995573e-04  -3.250111e-05  4.379025e-02  1.631129e-03
 1.504947e-04  2.213675e-05  1.665057e-04  2.438876e-05  1.024818e-01  -2.828255e-03
 3.438963e-05  6.040165e-06  -1.548936e-04  1.233339e-05  -3.381227e-02  -1.356969e-03
 -1.121379e-04  1.599760e-05  2.583052e-05  -1.380409e-05  -2.481727e-02  4.509757e-04
 2.058579e-05  3.015606e-05  3.091905e-04  -2.332485e-05  5.823905e-03  -3.350777e-03
 -8.235912e-05  2.001056e-06  3.339179e-05  1.936651e-05  4.834132e-02  -2.879189e-03
 -1.161168e-04  -2.711739e-05  2.326480e-05  3.276840e-06  9.833342e-02  -1.348261e-03
 -4.786812e-05  -2.361239e-06  -2.471104e-04  -9.784558e-06  2.043207e-03  -2.217290e-03
 -1.509746e-04  3.073124e-05  5.021595e-05  -1.151707e-05  -7.124750e-02  2.205558e-03
 1.573382e-04  2.825521e-06  -5.169816e-05  -3.513608e-05  7.913206e-02  -8.621231e-05
 4.161797e-05  -2.691702e-05  2.056153e-04  1.825182e-05  -3.133243e-02  2.234962e-03
 1.617289e-04  -3.784429e-06  -1.427471e-04  2.337289e-06  -6.012455e-02  -4.447383e-03
 5.513618e-05  -4.896837e-06  9.084867e-07  5.487450e-06  -1.113299e-01  -7.510602e-04
 1.418913e-04  4.996746e-06  -1.189492e-04  7.598192e-06  -3.706734e-02  -4.414234e-03
 -1.814237e-04  -1.379398e-05  -2.201494e-04  1.078604e-07  -4.804935e-03  -1.035079e-03
 1.255009e-04  2.063618e-05  -9.478414e-05  1.018689e-05  6.230343e-02  -5.677353e-05
 -1.597030e-04  -3.651239e-06  -2.006383e-04  8.239505e-06  8.566974e-02  -1.497783e-03
 -1.228672e-04  -1.691029e-05  -5.434551e-06  -4.037091e-06  -9.342395e-03  8.622980e-04
 -9.726830e-05  1.905736e-05  -2.813977e-04  -9.421535e-06  -1.472951e-01  1.364379e-03
 -3.066247e-05  -2.125646e-05  -2.338043e-04  -1.777184e-05  4.607104e-02  -3.701820e-03
 1.504706e-04  3.054891e-05  2.720132e-07  -1.901875e-06  3.151617e-02  -9.204583e-05
 2.329081e-05  1.045882e-05  1.949716e-04  8.626376e-06  -3.996013e-02  -2.364292e-04
 -1.485538e-04  8.081879e-06  7.156894e-07  -2.446807e-05  -1.384387e-01  3.299253e-03
 1.527102e-04  -6.706691e-06  6.393578e-05  2.331831e-05  -2.561058e-02  -1.355045e-03
 -4.149898e-05  -1.874964e-06  1.199372e-04  9.774490e-06  -4.863879e-02  3.848262e-03
 -1.848403e-05  -2.547543e-05  -2.435171e-04  4.525129e-06  5.922164e-02  2.656036e-03
 -2.659828e-04  2.495182e-05  4.594465e-05  2.190289e-05  8.147070e-03  -1.959627e-03
 -1.477109e-04  -1.565383e-05  -7.445556e-05  -9.068043e-06  -1.245589e-01  -9.599489e-04
 9.416330e-05  -2.206939e-05  1.645178e-04  1.143681e-05  9.861082e-02  -2.639688e-03
 -2.528593e-04  2.283613e-05  -1.557422e-05  -2.065782e-06  7.362437e-02  -1.563599e-03
 5.106623e-04  -2.587178e-05  2.136515e-04  -1.191676e-05  5.375766e-03  2.481803e-03
 3.594292e-05  -2.191420e-08  -1.841360e-04  -1.189880e-05  -3.435723e-02  1.910409e-03
 5.897954e-05  -1.708885e-05  -9.307597e-05  -1.764670e-05  -6.595526e-02  -9.363721e-04
 -1.566743e-04  7.388559e-06  3.485195e-05  1.616206e-05  -3.911476e-02  -6.538998e-04
 -1.827646e-04  -1.128329e-05  5.499427e-05  -4.344125e-06  -1.200246e-02  1.811927e-03
 2.494595e-05  -9.380834e-06  -7.813009e-06  2.322642e-05  3.275527e-03  1.198887e-03
 1.691429e-04  2.069523e-05  -2.225368e-04  1.520522e-05  8.698185e-02  5.170953e-04
 5.002455e-05  1.089553e-05  2.642653e-05  -8.866778e-06  -4.363219e-02  -2.340868e-03
 -2.580178e-04  4.236838e-06  4.723866e-06  -6.408374e-06  1.403888e-02  -2.458264e-03
 -2.845995e-04  1.210552e-05  -1.478749e-05  1.233476e-06  5.840773e-02  1.399708e-03
 -2.376364e-04  -1.649054e-05  -1.598040e-04  -2.339345e-05  -3.064906e-02  -1.905010e-04
 1.623246e-04  -3.453708e-06  -4.001353e-04  -3.920381e-05  5.638522e-02  2.266812e-03
 -2.375856e-05  -1.820272e-05  2.333057e-04  -2.705374e-06  -8.480587e-02  -2.791889e-03
 -5.981170e-05  -2.327276e-05  1.556927e-04  2.057130e-05  -4.042827e-02  -1.533190e-04
 8.316923e-05  -1.301177e-05  2.507026e-04  1.648281e-05  -5.640553e-02  3.632959e-03
 -3.979384e-04  7.486211e-06  1.343625e-04  -6.229905e-06  4.047428e-03  -1.235944e-03
 2.938849e-04  1.491455e-05  1.389809e-04  2.173987e-05  -6.068267e-02  1.215975e-03
 -2.362430e-05  7.559061e-06  7.372025e-05  -7.132121e-06  -4.595471e-02  1.989743e-03
 -4.567469e-05  -5.071147e-05  1.174624e-04  1.016149e-05  2.867102e-02  -2.528269e-04
 -1.607415e-04  -4.708273e-06  -1.739067e-04  -1.572631e-05  3.422739e-02  6.889723e-04
 -1.481981e-04  2.321126e-05  -4.919657e-06  -2.719679e-06  -4.360755e-02  -2.915961e-03
 8.681658e-05  8.866577e-06  -1.587726e-04  9.287774e-06  6.792085e-02  1.956362e-03
 -9.082689e-06  1.741467e-05  8.792856e-05  -3.290663e-05  -1.026019e-01  2.196061e-03
 1.450783e-04  -1.453153e-06  -1.980226e-05  -2.280417e-05  8.602279e-03  1.681329e-03
 -1.023644e-05  5.015084e-06  3.645329e-04  1.250341e-05  4.611603e-02  9.616035e-04
 4.429704e-04  -1.792185e-05  3.950157e-05  -1.509350e-05  1.343528e-01  1.459133e-03
 -1.051214e-04  -1.343686e-05  -2.640528e-04  -1.207387e-05  5.486860e-02  5.057354e-03
 -7.563693e-05  -2.371429e-05  1.627150e-04  1.376073e-05  4.066669e-02  -1.593012e-03
 4.802143e-05  1.962806e-05  1.832801e-05  -2.085379e-05  -2.762616e-02  -1.031442e-03
 -1.372415e-04  -1.953836e-05  2.260204e-04  -1.229851e-05  1.092735e-01  -4.446877e-03
 1.204626e-04  -1.395226e-05  -1.109037e-04  1.094260e-05  -2.040274e-02  -5.131440e-03
 8.783527e-05  -2.140172e-05  1.171808e-04  7.237509e-06  3.404482e-02  2.050896e-03
 1.445374e-04  5.209945e-06  -1.136127e-04  -6.696817e-06  -1.816593e-02  4.029666e-03
 -4.240352e-04  -1.990916e-06  2.012582e-05  -1.569874e-05  7.717088e-02  -4.011761e-04
 3.020043e-04  1.548413e-05  -1.281832e-04  2.243510e-05  -6.032976e-03  2.777631e-03
 -8.881756e-05  -3.113815e-06  -1.535190e-05  -9.075157e-06  -6.311563e-02  4.237400e-04
 6.474454e-05  -1.273888e-05  -8.981365e-05  9.374305e-06  2.283598e-02  1.383776e-04
 2.534222e-06  -1.747670e-05  1.951558e-04  9.878500e-06  -5.575859e-02  4.437902e-04
 4.516577e-05  -2.891604e-05  -2.362574e-04  -1.311342e-05  -7.005971e-03  7.563489e-04
 -2.339053e-04  -8.406262e-06  4.834885e-05  -2.181270e-05  -2.955653e-02  1.173664e-03
 -1.926467e-04  7.636201e-06  5.225291e-05  -2.738115e-05  -1.037592e-01  -7.980299e-04
 -3.568359e-05  -1.413219e-05  1.950708e-04  -4.663973e-06  7.317683e-02  -7.147560e-05
 1.337603e-04  -2.973267e-05  -2.729152e-04  1.069142e-05  -1.689665e-02  4.325718e-04
 -2.722561e-05  -1.331558e-05  -9.208333e-05  2.577029e-06  1.064666e-01  -1.451331e-03
 -4.109699e-05  -1.303173e-05  7.888284e-05  5.002716e-06  -3.193714e-02  5.825719e-04
 8.808706e-05  -2.222702e-05  2.265689e-04  1.124749e-05  -8.342520e-02  1.533935e-03
 2.637971e-05  -2.471380e-06  -1.327286e-04  -8.399392e-07  -1.176987e-01  -7.378714e-04
 1.690130e-04  1.018666e-05  -2.384944e-04  2.052329e-05  9.213056e-02  1.072256e-03
 -1.678287e-04  -1.706688e-05  -2.220345e-04  1.215082e-05  7.437772e-04  2.715278e-03
 -4.778190e-05  -1.067848e-05  2.473233e-04  4.778719e-06  3.206488e-02  2.692690e-03
 -2.834618e-04  8.631603e-06  -1.228683e-04  -2.532042e-06  -5.288417e-02  -3.173440e-03
 -1.299967e-04  -1.119863e-05  2.939239e-04  9.948762e-06  4.173223e-03  6.141850e-03
 -5.559157e-04  -8.586158e-06  -1.316923e-04  1.678055e-05  -6.031388e-02  1.594010e-04
 2.250930e-04  -1.666165e-06  5.780065e-05  -2.781738e-05  2.061020e-04  -2.085027e-05
 -1.941563e-04  7.556667e-06  -8.022341e-05  -6.451011e-06  2.415731e-02  -2.437991e-03
 -5.945582e-05  -1.378152e-05  1.642829e-04  3.979577e-05  1.070503e-01  -6.725832e-05
 -2.033729e-05  1.278492e-05  -4.786546e-05  -1.467435e-05  2.933634e-02  1.705890e-03
 1.137714e-04  2.900320e-05  -1.542070e-04  -1.295951e-06  2.826973e-02  -6.162297e-03
 3.252500e-05  -1.628589e-05  -8.982078e-05  1.115972e-05  3.425080e-02  7.220791e-03
 8.543389e-06  -2.442832e-05  5.104185e-05  1.426207e-06  -4.161527e-02  3.452718e-03
 -7.746178e-05  2.987399e-06  -1.283923e-04  2.926122e-05  2.615106e-02  -3.022869e-03
 -3.732867e-05  8.142986e-06  1.244208e-04  -1.487610e-05  9.604994e-02  -3.305378e-03
 -1.787687e-04  -2.742606e-05  4.440896e-05  -2.235219e-05  -2.158513e-02  -4.106899e-03
 2.476633e-04  3.030046e-05  -2.169441e-05  1.040021e-05  1.264753e-01  -8.928790e-04
 2.597198e-05  2.385183e-06  1.352723e-04  1.541166e-05  5.280411e-02  -2.037313e-03
 3.860743e-04  8.857735e-06  3.174123e-04  1.679828e-05  -3.405475e-02  1.273141e-04
 -3.342641e-05  8.235615e-06  -1.712604e-04  -8.688507e-06  3.850831e-02  4.512364e-03
 6.295877e-05  3.485581e-06  -1.015494e-04  -3.859956e-05  -8.201213e-03  -3.256779e-03
 -1.498745e-05  -3.201191e-06  -1.060051e-04  2.794151e-05  5.734355e-02  1.900671e-03
 2.216667e-04  -1.717938e-05  2.505998e-04  4.098119e-05  -4.004121e-02  -2.869957e-03
 2.449198e-05  9.952860e-06  -2.733746e-04  -7.842694e-07  5.230793e-02  1.034036e-04
 -1.668607e-04  1.990535e-06  1.012815e-04  -1.475842e-06  3.854248e-02  2.913747e-03
 -4.851774e-05  -1.421005e-05  -7.025851e-05  6.900396e-06  9.998206e-02  1.050380e-03
 1.401095e-04  -1.395046e-05  2.688513e-04  -1.654662e-05  6.890532e-02  -1.208109e-03
 -2.131959e-04  1.275452e-05  1.234705e-04  6.236146e-06  6.543370e-02  -3.687175e-04
 -7.685530e-05  3.275575e-05  -8.077641e-05  -1.194044e-05  6.947474e-02  -1.772624e-03
 2.737450e-04  -3.618810e-05  2.410802e-04  1.919369e-05  -3.171717e-02  1.293048e-03
 -2.456897e-04  -2.114524e-06  -9.499251e-07  -2.135307e-05  -5.140769e-02  -2.792460e-03
 -1.021360e-04  -2.604192e-05  -1.231211e-04  5.879078e-06  1.065549e-02  -1.767433e-03
 8.071728e-05  -4.870032e-06  -1.737301e-04  4.094046e-06  -2.110052e-02  -4.701568e-04
 -2.294098e-05  3.984771e-07  -8.467214e-05  2.382238e-05  1.227417e-01  1.737333e-03
 -1.328419e-04  3.639799e-06  1.454247e-04  2.789021e-07  1.191856e-02  1.711546e-03
 -1.461068e-04  1.629256e-05  -1.678171e-04  -9.335113e-06  -3.199223e-02  -3.724851e-03
 -3.817681e-06  -5.430937e-06  -2.102176e-04  -2.614341e-05  4.991925e-02  -1.178267e-03
 2.214041e-04  3.649227e-06  -1.600877e-04  -7.358619e-06  -7.971554e-04  1.692214e-03
 -5.513419e-05  3.234965e-06  8.065667e-05  -2.051433e-05  3.750458e-02  2.102062e-03
 1.854905e-04  4.263804e-06  1.666487e-05  7.869052e-06  -3.353347e-02  2.112910e-03
 2.814308e-04  2.599517e-05  2.668836e-04  6.152852e-06  -4.432646e-03  -1.441640e-04
 -2.532051e-04  1.358536e-05  5.010659e-05  5.438514e-06  -8.706470e-02  5.823849e-04
 1.601057e-04  -3.839847e-06  2.027280e-04  -1.359785e-05  -8.099201e-02  -1.001594e-03
 -1.775837e-04  1.149481e-06  -7.289174e-06  1.440785e-05  1.108872e-02  1.213560e-03
 -1.372787e-04  -2.370414e-06  -1.034630e-04  -1.553125e-05  -5.859185e-02  -2.148568e-03
 -9.500848e-05  1.793498e-05  5.675216e-05  2.046645e-05  6.708770e-02  -5.379610e-04
 -3.558103e-04  -1.283415e-05  -2.365942e-04  1.088525e-05  -7.825413e-02  3.878093e-04
 1.054087e-04  -1.396029e-05  -1.161583e-04  1.716514e-05  -1.014400e-01  -3.797065e-03
 2.426566e-05  -7.823235e-06  3.455750e-05  5.750711e-06  -1.073303e-02  4.844664e-04
 1.586799e-04  1.362144e-05  -8.602787e-05  1.857587e-05  -9.397119e-02  2.246663e-03
 -2.855107e-04  -4.283974e-05  2.431340e-04  -2.141705e-05  -6.711398e-02  -3.559174e-03
 -8.901489e-05  -3.739411e-05  -2.366486e-04  -5.463514e-06  8.963515e-02  -6.493132e-04
 1.230280e-04  -1.651784e-06  -1.990733e-04  -1.157304e-05  -9.270030e-02  9.435026e-04
 -1.518756e-04  -4.355630e-08  2.234820e-04  6.019541e-06  -3.073721e-02  -1.204256e-03
 2.648134e-05  -5.940125e-06  -2.046454e-04  4.107305e-06  -7.782649e-02  5.387433e-03
 -2.833868e-05  3.126266e-06  3.112461e-04  -1.033712e-05  1.628579e-03  9.892951e-05
 -9.751678e-05  -1.494684e-05  -8.783908e-05  -8.706880e-06  6.055463e-02  1.775232e-03
 -1.284664e-04  2.251677e-05  -1.275090e-04  8.892812e-06  2.664710e-02  2.743789e-03
 -9.407602e-05  5.825523e-06  2.202291e-04  -8.823553e-06  -6.873792e-03  1.180640e-03
 -2.467464e-05  2.600963e-05  1.681049e-04  9.486866e-06  4.824490e-02  2.254862e-03
 1.250950e-04  -2.921961e-05  1.158108e-04  2.988940e-06  8.310362e-03  -1.661462e-03
 8.522632e-05  6.269706e-06  -5.214115e-05  -8.097702e-06  -1.598443e-02  -2.957353e-04
 -1.167580e-04  2.025540e-05  8.001048e-05  -1.520174e-05  4.005683e-02  2.067450e-03
 1.463436e-04  -7.867949e-06  -1.601545e-04  -1.020197e-05  6.024556e-02  4.567730e-03
 6.675545e-05  1.093600e-06  -1.882974e-05  -7.923019e-06  -2.772225e-02  1.231768e-03
 -7.804509e-05  7.849545e-06  2.731950e-04  -6.775616e-06  1.430117e-02  -3.772072e-04
 4.800985e-05  -7.914016e-06  -3.240086e-05  -4.279451e-06  1.451873e-02  2.606973e-03
 -1.651219e-04  1.829703e-05  5.095086e-05  -1.201885e-05  5.349386e-02  -6.621795e-04
 3.399656e-05  -1.978998e-05  -6.730427e-05  -1.504576e-05  -4.792849e-02  -4.414616e-03
 -1.221188e-04  -1.373582e-05  -2.088701e-05  2.311512e-05  5.852554e-02  2.011704e-03
 5.013663e-05  1.573702e-05  -3.282319e-04  -1.017954e-05  -1.182029e-01  2.406605e-03
 3.755401e-04  2.929278e-05  -1.450553e-04  -9.896092e-06  2.716459e-02  2.910056e-03
 7.180365e-05  4.423831e-05  -6.750423e-05  1.198876e-05  -6.346450e-02  1.646874e-03
 -1.559501e-04  -4.474690e-06  3.038254e-04  1.774353e-05  -5.638345e-02  -1.620403e-03
 -9.174490e-05  -2.298382e-05  -1.232805e-04  1.822241e-05  8.758033e-02  1.378422e-04
 1.985421e-05  1.563548e-05  1.048662e-04  1.358485e-05  5.910049e-02  -4.347200e-04
 1.913231e-04  2.267569e-05  1.042775e-04  2.205510e-05  3.614035e-03  6.041282e-03
 -1.737205e-04  2.736070e-05  6.794784e-05  5.103624e-06  -5.498788e-02  -2.982113e-03
 3.391080e-04  -1.333107e-05  -2.231172e-04  -7.444015e-06  6.858376e-02  -4.140945e-03
 1.485213e-04  1.391941e-05  6.360249e-05  -6.463484e-07  5.707866e-03  -7.822871e-04
 -4.030814e-05  -2.316496e-05  1.245439e-05  1.001965e-05  9.016713e-03  4.388535e-03
 2.484524e-04  6.825485e-06  -7.532791e-05  1.622798e-05  7.698410e-02  2.647726e-03
 1.355196e-04  3.011296e-05  2.218146e-04  -3.205120e-06  -2.896083e-02  1.363139e-03
 -3.375331e-04  2.556185e-06  -1.091659e-04  6.346818e-06  -4.300661e-02  1.546130e-03
 -1.055093e-04  -2.734577e-06  6.906459e-05  -8.215991e-06  -2.712552e-02  -2.239586e-03
 1.680352e-04  -4.019265e-06  -1.478017e-04  4.336917e-06  4.361533e-02  1.649944e-03
 1.082427e-04  1.950375e-06  -1.309488e-04  1.288687e-05  2.667785e-02  3.463764e-03
 6.958027e-05  8.700545e-06  -2.254533e-04  -2.272673e-05  2.502653e-02  2.397855e-05
 1.490698e-04  -3.563544e-05  -2.394418e-05  8.131914e-06  -2.170925e-02  -3.327577e-03
 4.797904e-05  5.954605e-06  1.549521e-04  -1.848303e-06  -5.638210e-02  2.500656e-03
 -2.938576e-04  -1.124137e-05  -7.788529e-05  -9.663848e-06  6.335263e-02  1.533230e-03
 -4.124353e-04  4.685288e-06  1.253905e-05  2.082039e-05  2.076057e-02  2.556438e-03
 1.811157e-04  -2.902721e-05  9.604817e-05  -5.150814e-06  5.419204e-02  2.264003e-04
 -9.856885e-05  -2.304087e-05  -5.138851e-05  -5.243068e-06  1.413002e-01  -3.364503e-03
 3.502363e-05  7.505576e-06  -1.177546e-04  -1.267887e-05  -8.663065e-03  2.760506e-03
 -2.346734e-05  1.202773e-05  -7.831543e-05  -1.496737e-05  -9.785196e-02  4.708746e-03
 2.597496e-04  -8.131760e-07  1.497678e-06  6.809328e-06  -6.452910e-02  -1.322592e-03
 -1.422146e-04  -6.589265e-06  9.410376e-05  -1.231475e-05  -1.171749e-02  5.197936e-03
 8.628195e-05  -1.894359e-07  -3.547382e-04  1.928878e-05  1.272030e-01  1.950027e-03
 6.748451e-05  -2.212686e-05  -1.047346e-04  7.886472e-06  3.888849e-02  -4.220637e-03
 -1.941259e-04  -3.667444e-05  -2.196893e-04  -1.192272e-06  1.163290e-01  2.331468e-03
 -5.264836e-05  -1.361477e-05  -2.133319e-04  9.247851e-06  -7.486433e-02  -2.597384e-03
 1.061793e-04  -8.807628e-06  4.776168e-05  -1.250063e-05  -4.091934e-02  3.670313e-03
 4.292197e-05  4.235544e-07  -3.027270e-05  -2.518191e-05  6.197002e-02  -2.039143e-03
 -1.621240e-04  4.009616e-05  1.089693e-05  4.861160e-06  5.793739e-02  1.619383e-03
 1.452482e-04  4.216265e-06  5.531301e-05  -1.347258e-06  -3.384258e-02  -6.661854e-04
 -4.820187e-05  1.368973e-06  -1.439009e-05  1.911989e-05  -4.158776e-02  -2.705443e-04
 -2.209262e-04  -1.192219e-05  2.643435e-04  2.382665e-05  -7.350009e-02  9.814426e-04
 1.654896e-04  2.595775e-06  -6.214246e-05  -7.839498e-06  3.552811e-02  2.539429e-03
 3.612066e-04  -1.147259e-05  -5.627269e-05  -8.368409e-06  3.093362e-02  -9.843212e-04
 -5.847665e-05  -9.702473e-06  -4.514653e-06  -2.310196e-05  6.925734e-02  5.199766e-04
 4.440010e-05  -6.560320e-06  -2.458596e-04  6.167291e-06  3.967787e-03  5.503333e-03
 -2.279410e-04  -3.044799e-05  5.292542e-05  1.102893e-06  8.720111e-02  2.075051e-04
 -1.871105e-05  -1.556783e-05  -7.979303e-05  -2.382798e-05  3.585522e-02  6.906640e-04
 -1.966027e-04  -1.729754e-05  7.558693e-05  -1.490841e-05  -3.160433e-02  -7.536630e-04
 -3.923371e-05  1.260979e-05  -3.166661e-04  3.561608e-05  9.373596e-02  -2.318963e-04
 -7.746259e-05  2.839571e-05  -1.760767e-05  2.635640e-05  4.419456e-02  1.396689e-03
 1.940554e-04  -1.420146e-05  1.204130e-04  -5.247368e-06  6.106057e-02  1.620175e-04
 -1.197492e-04  2.940589e-05  -4.484625e-05  7.914708e-06  1.913341e-01  6.633114e-04
 -1.225928e-04  -9.541142e-06  1.239402e-04  -1.716488e-05  -8.832500e-02  4.261080e-04
 3.109977e-04  8.687870e-06  -1.949431e-05  3.908217e-06  1.013934e-01  2.050030e-03
 -1.288672e-05  2.651726e-05  -3.652074e-05  2.589235e-05  -5.591741e-02  3.721747e-03
 -9.950033e-05  8.442981e-06  -2.838202e-04  1.334934e-05  -1.442795e-02  -7.732787e-04
 -2.457018e-07  -2.586020e-05  7.704165e-05  3.180889e-06  5.491937e-02  5.542025e-04
 3.665466e-05  -2.267116e-05  2.928187e-04  -1.653356e-06  -2.705581e-02  4.199465e-04
 1.091316e-04  -2.106513e-05  -1.538040e-04  1.528296e-06  -4.083934e-02  1.117123e-03
 -2.250115e-06  1.699050e-05  -1.937030e-04  8.111386e-06  9.135598e-02  3.210964e-03
 3.004478e-04  1.369830e-05  1.488029e-04  -4.465775e-06  -2.391151e-02  6.514575e-04
 1.495249e-04  4.654038e-06  -1.721088e-04  3.331995e-06  -4.705262e-02  1.127549e-04
 7.786011e-05  -1.460819e-05  -9.767223e-05  -1.907840e-05  2.934279e-02  -3.941298e-05
 -1.195857e-04  -1.943262e-05  1.913651e-04  -2.264303e-06  8.096417e-02  1.424407e-03
 4.545901e-05  -1.037872e-05  -8.910949e-05  -1.230320e-05  1.478037e-02  -1.139977e-03
 -1.046796e-04  -1.021016e-05  1.347239e-04  6.382606e-06  5.556555e-02  5.093924e-03
 -6.090685e-05  -1.906039e-05  6.281642e-05  2.626277e-05  -8.605612e-02  1.014266e-03
 1.099986e-05  -1.739507e-05  3.027675e-04  2.862663e-05  2.643384e-02  4.404147e-03
 -6.210363e-06  8.097694e-06  1.674940e-04  2.906001e-05  -5.398448e-04  -5.291307e-04
 1.097473e-04  1.700480e-05  2.084044e-05  -1.021069e-05  5.101567e-02  5.100623e-04
 1.701762e-04  -6.199833e-08  -9.045501e-06  -2.207854e-05  -4.132892e-02  2.289078e-03
 1.713023e-04  -2.941184e-05  1.111593e-04  -7.506196e-06  -6.259030e-02  1.297221e-04
 1.332827e-05  1.355495e-05  -1.089700e-04  1.861185e-06  -5.612955e-02  2.180305e-03
 2.840412e-05  -1.667528e-05  1.124451e-04  3.095690e-05  -1.205468e-01  -5.034005e-03
 5.814595e-05  -5.593104e-06  5.024733e-05  1.583991e-06  -5.574379e-03  4.231514e-03
 -1.432017e-05  -1.514101e-05  -4.078582e-06  5.690868e-06  5.087757e-02  1.834497e-03
 4.016875e-05  -1.082836e-05  2.231339e-04  9.293850e-07  -5.952652e-02  3.231112e-03
 7.836815e-05  3.220481e-06  -1.792162e-04  4.178238e-06  5.070091e-02  -7.961133e-04
 -1.747114e-04  -1.576271e-05  -1.367471e-04  -1.381884e-05  -5.847034e-03  8.003790e-04
 -3.073683e-05  -8.906304e-06  1.992000e-05  -1.764271e-05  9.165428e-02  5.816769e-04
 -1.067618e-04  4.337180e-06  7.384456e-05  2.453727e-05  1.585877e-02  -2.057053e-03
 -1.889080e-05  6.456400e-06  1.936561e-04  -2.025541e-05  -8.360247e-03  -1.339771e-03
 1.038279e-04  -1.858768e-05  9.674543e-05  2.945791e-05  -8.862366e-04  1.085548e-04
 -7.243941e-05  -1.923131e-05  -2.166319e-05  1.956871e-05  1.829854e-02  1.492196e-03
 -1.946495e-04  -1.089130e-05  7.497871e-05  2.975960e-05  -4.390845e-02  6.895886e-04
 -1.516712e-04  1.896427e-05  2.661132e-05  6.665836e-06  1.890986e-03  6.369660e-04
 -2.177224e-04  1.249042e-05  1.243259e-04  -3.639618e-06  -4.565552e-02  -1.919526e-03
 -2.189572e-04  -4.866421e-06  -1.473281e-05  4.322174e-07  -1.291307e-01  -4.001611e-03
 1.268401e-04  2.218197e-05  7.169542e-05  5.354110e-06  2.934645e-02  2.508768e-03
 2.115388e-04  4.853453e-08  2.560622e-04  1.339526e-05  1.809464e-02  -2.129351e-03
 -6.352044e-06  -2.342308e-05  -3.726746e-04  -2.141227e-07  5.411737e-03  3.598441e-03
 2.843332e-04  -9.166049e-06  2.238988e-04  -4.797437e-05  -7.598131e-03  -3.014056e-03
 -2.184563e-04  -1.628864e-05  2.688230e-04  -1.476503e-05  2.441314e-03  -4.624654e-04
 2.065039e-04  3.683941e-06  1.581383e-04  -7.007899e-06  3.493608e-02  3.351320e-03
 4.151820e-04  1.428739e-06  -1.956517e-05  -5.101963e-06  -9.312737e-03  1.195115e-03
 -1.258643e-04  -7.706735e-06  6.898846e-05  1.640321e-05  -1.275181e-01  -3.642266e-03
 -3.488411e-04  -1.046211e-05  -2.401587e-06  -2.015886e-05  -5.397505e-02  -2.920226e-03
 -1.582727e-04  9.382820e-06  1.008457e-04  6.330957e-06  -1.876589e-02  4.075243e-03
 -1.890211e-05  -1.749234e-05  2.366170e-04  -3.773167e-05  -9.147233e-02  2.759079e-03
 5.228419e-05  6.814583e-06  -1.192132e-04  4.751390e-05  -3.836865e-02  1.372827e-03
 -1.414413e-04  -1.468660e-05  -9.367848e-05  6.865505e-06  -2.060838e-03  3.528742e-03
 4.472728e-05  -1.115572e-05  7.784890e-06  1.205083e-05  -8.901063e-02  4.300580e-03
 1.946306e-04  5.118451e-06  5.474391e-05  1.215078e-05  -9.470847e-02  2.569610e-03
 6.720489e-05  -2.647842e-05  6.489199e-06  1.559614e-05  1.747721e-01  2.913880e-03
 -9.978551e-05  -1.067113e-05  4.867870e-05  3.051985e-05  -4.976136e-03  3.424686e-03
 8.416144e-05  -7.183595e-06  1.051644e-04  -1.915523e-05  -4.707808e-02  -2.845548e-03
 1.092081e-04  3.754113e-06  2.529378e-04  -7.841939e-06  -7.362184e-02  -3.465938e-04
 1.608488e-05  -1.516076e-07  9.160524e-05  1.024892e-05  -3.139769e-02  -1.378812e-03
 -3.254878e-04  1.434883e-05  2.586516e-04  1.666370e-05  8.926314e-02  1.250676e-04
 -3.952984e-04  8.805732e-06  -1.559101e-04  -2.017960e-05  -2.583309e-02  -1.674342e-03
 -1.112468e-04  7.069589e-06  -9.599130e-05  -9.586544e-06  1.494490e-02  -2.869223e-03
 1.463132e-04  2.679131e-05  6.736722e-05  -8.679647e-06  1.622475e-02  4.754775e-03
 -8.114029e-05  -1.521334e-05  -2.098848e-04  3.253762e-06  5.785100e-02  2.187951e-03
 5.093846e-05  -1.170991e-06  4.911804e-04  1.545904e-05  -1.898867e-02  1.306091e-03
 -1.799146e-04  9.659408e-06  6.492061e-05  1.668487e-05  -7.115144e-03  -2.708297e-03
 -5.360410e-06  -4.754694e-06  -2.307667e-05  -8.852569e-06  -8.109444e-02  7.017360e-04
 1.696006e-04  -1.792621e-05  -7.790467e-05  2.132370e-05  2.201945e-02  -3.000879e-03
 -9.069980e-05  -2.080161e-05  1.269392e-04  -2.477914e-05  -1.738557e-02  -3.285548e-03
 -2.098528e-04  -3.059289e-05  4.630660e-06  8.250429e-06  -2.718140e-02  -4.308726e-03
 1.091669e-05  -7.696460e-06  1.653689e-04  -1.699314e-05  -4.402042e-02  5.890863e-04
 1.184065e-04  -6.033667e-06  -1.347846e-04  -1.039357e-08  5.229706e-02  -1.543625e-03
 4.872596e-05  -2.315516e-05  1.606017e-04  -1.787409e-05  6.378227e-02  2.671877e-03
 -1.221364e-04  -4.938221e-06  2.084922e-05  -1.579546e-05  1.004083e-01  1.122524e-03
 -1.282845e-04  -1.021248e-05  1.617975e-04  -1.862434e-05  -2.404200e-02  2.265352e-03
 1.564286e-04  6.345535e-07  2.121125e-04  1.238096e-06  4.084221e-02  -2.070292e-04
 1.166740e-04  -3.660644e-06  1.989752e-04  -7.518967e-06  8.622287e-03  9.741400e-04
 8.847432e-05  7.499503e-06  5.070115e-06  -2.893126e-06  -2.023082e-02  -5.397724e-03
 -4.399855e-05  2.800572e-06  2.142303e-05  -2.223457e-05  -4.573069e-02  2.690653e-03
 1.961138e-04  -1.540533e-05  1.798619e-04  -1.400114e-05  1.061733e-02  -3.018934e-03
 1.745413e-04  1.804352e-05  8.312429e-05  -8.798543e-06  -8.503206e-02  -7.870497e-06
 -1.741742e-04  -1.321554e-05  1.333824e-04  -1.064008e-05  -7.420597e-02  2.424019e-03
 -2.940652e-04  1.476862e-05  -1.716066e-04  -3.686746e-06  -3.205893e-03  4.198457e-03
 -1.960138e-06  1.935844e-05  -3.069274e-04  1.308439e-05  7.847863e-03  -3.628186e-03
 -3.776301e-05  6.716349e-06  1.842374e-04  -1.414380e-05  -2.381869e-03  -5.089029e-03
 -7.887269e-05  9.711795e-06  4.272441e-04  2.521733e-05  -3.654829e-02  -2.234923e-03
 5.207025e-05  -1.476045e-05  1.626534e-04  -1.036933e-06  -8.822641e-02  -1.244630e-04
 -6.156194e-05  -1.019013e-05  -1.497613e-04  -1.823675e-05  -1.614869e-02  -6.934184e-03
 -9.349892e-05  -2.368971e-05  -2.468419e-04  -7.854975e-06  4.956423e-02  1.546636e-03
 7.283142e-05  1.508907e-05  -3.003064e-04  2.828220e-06  7.184064e-02  1.283203e-03
 1.395679e-04  -1.512064e-05  -3.308383e-05  1.522346e-05  -6.404783e-02  5.857011e-03
 3.531880e-04  1.925197e-05  2.289916e-04  -8.471839e-06  3.085776e-02  3.833737e-03
 -3.774654e-04  -1.328019e-05  1.010088e-04  3.845948e-06  5.586220e-02  -1.962211e-03
 3.452850e-05  1.071211e-05  8.808071e-05  -1.849809e-05  3.687858e-02  4.338618e-03
 -4.158342e-04  1.296064e-05  -1.923100e-04  -2.712889e-05  -4.718878e-02  2.585479e-03
 3.737402e-05  -6.879742e-06  -5.519622e-05  -1.664085e-05  1.821611e-02  -2.379913e-03
 8.274294e-05  1.997706e-05  -2.654720e-05  2.978384e-05  -2.572825e-02  -2.487143e-03
 5.347844e-05  -4.971046e-07  -1.009369e-04  -6.116868e-06  -7.762768e-02  -3.345660e-03
 -1.515452e-04  1.916615e-05  1.246243e-04  -2.355561e-05  2.561725e-03  -1.245569e-03
 -2.279299e-04  -1.143149e-05  -6.527120e-05  -3.739455e-05  -4.267713e-02  -5.428085e-04
 -2.101946e-04  -1.374362e-05  4.390971e-05  -1.362150e-06  -7.966483e-02  1.332997e-03
 2.333492e-04  -1.631386e-05  4.636782e-04  1.470757e-06  2.809759e-02  -1.076345e-04
 2.483286e-04  -1.574534e-05  -1.004999e-04  -1.635991e-06  2.335544e-03  -4.476912e-03
 2.134514e-05  -2.214831e-05  1.509957e-04  3.676811e-05  -4.328990e-02  4.531524e-03
 1.999106e-04  2.766857e-05  4.189410e-06  2.336888e-05  -1.431277e-02  1.729019e-03
 -1.646790e-04  1.500245e-05  1.427825e-04  8.638744e-06  -2.803544e-02  -1.477060e-03
 1.187934e-04  1.451881e-05  1.202360e-04  3.764278e-06  3.659896e-02  -1.139932e-03
 2.711923e-04  -9.390209e-06  4.917948e-05  9.347957e-06  7.536471e-02  -1.438233e-04
 -2.327323e-04  -5.839551e-06  -1.372013e-04  7.232944e-06  2.013129e-02  1.636999e-03
 -2.087606e-04  -1.022632e-05  8.913466e-05  9.231806e-06  1.371938e-03  2.510278e-03
 1.868612e-05  -1.933636e-05  -2.312498e-04  1.004534e-05  3.591441e-02  -2.109215e-03
 -7.716559e-05  -1.299796e-06  -1.769385e-04  -8.671789e-06  1.417326e-02  -1.672963e-03
 2.487511e-05  -5.465795e-06  5.672606e-05  2.676058e-05  -3.554790e-02  1.679822e-03
 6.929872e-05  -2.877264e-05  1.194655e-04  -2.822013e-05  1.223708e-02  4.764670e-04
 2.308911e-04  1.490639e-06  2.444784e-05  -2.783688e-05  -1.322449e-02  9.252455e-04
 3.368778e-04  -8.609055e-06  -1.511118e-04  8.341744e-06  1.560658e-02  -3.716681e-03
 -9.603727e-05  2.705177e-07  -3.538353e-05  3.617822e-06  9.928847e-02  -2.188902e-03
 -1.284106e-04  1.920882e-05  1.323381e-04  -2.251229e-05  1.238363e-02  5.133630e-05
 -4.831492e-05  9.263388e-06  -2.410800e-05  3.544849e-06  -7.091393e-02  -3.387915e-03
 -6.075345e-05  -5.247686e-06  -5.847182e-05  3.712254e-07  7.569743e-02  6.264144e-04
 -2.485318e-04  -1.506123e-05  -1.319561e-04  -2.949993e-05  6.027800e-03  3.065688e-03
 -3.883535e-05  1.001843e-05  3.871136e-05  3.055655e-05  5.915899e-02  1.554394e-03
 -7.808240e-05  -7.565093e-06  -1.662179e-04  2.514918e-05  -1.108426e-02  2.751546e-03
 -1.299522e-05  5.386586e-06  -6.914153e-05  -1.657921e-05  -4.273609e-02  2.126945e-03
 2.795352e-04  -9.581116e-06  -8.339107e-05  7.626842e-07  -6.573073e-02  2.440687e-03
 9.499588e-05  -2.700241e-05  -2.627225e-04  5.542436e-06  -1.980787e-02  -3.467104e-03
 2.208084e-04  6.178979e-06  2.657022e-04  -5.219832e-06  6.655154e-02  -3.389543e-03
 -1.487261e-04  -2.710511e-06  1.591918e-04  -7.062500e-06  -1.235624e-02  -1.457444e-03
 9.723745e-05  3.096263e-05  1.244131e-04  -1.132614e-06  -1.916439e-02  -6.625778e-04
 -1.220064e-04  -2.362978e-05  9.007596e-05  4.474876e-06  -1.164642e-01  -1.347918e-03
 1.437070e-04  -1.188858e-05  -6.167557e-05  -4.020807e-06  -3.721040e-02  -1.028152e-03
 -1.138329e-05  1.046086e-05  1.717932e-04  1.313488e-05  8.639583e-03  9.676201e-04
 -2.132409e-04  8.976476e-06  -1.282337e-04  1.545407e-05  -1.047690e-01  1.472994e-03
 5.274334e-05  2.295074e-06  -2.443797e-04  2.698071e-05  1.670669e-02  2.278666e-03
 -4.113105e-05  -1.635873e-06  1.031654e-04  -5.508633e-06  5.805453e-02  2.797269e-03
 -1.747397e-04  1.496344e-05  -1.689254e-04  1.913350e-05  -7.393653e-02  3.601350e-04
 -1.008265e-04  -3.747999e-06  -1.247187e-04  -1.048370e-05  -6.732688e-02  -4.311647e-03
 -1.590847e-04  3.040595e-05  -1.008286e-05  -2.014569e-05  1.674370e-02  2.818093e-04
 9.458187e-05  -1.382904e-05  1.771622e-04  1.339374e-05  -3.555746e-02  -1.097491e-03
 1.497647e-04  1.674028e-05  -2.313679e-04  -7.260821e-06  -1.493233e-02  3.350334e-06
 -2.016005e-04  1.484917e-05  -4.528969e-05  -1.717540e-06  6.557862e-02  2.372423e-03
 -1.236191e-04  -1.249860e-05  -7.676006e-05  -2.285849e-07  6.647635e-02  -4.309941e-03
 -1.040160e-04  -5.738154e-05  2.184739e-04  -1.159806e-05  -5.956083e-02  1.119271e-04
 -1.307884e-04  5.467975e-06  -1.697125e-04  -1.023364e-05  -5.760340e-02  -2.650312e-03
 -1.209560e-04  -3.438748e-07  -1.109042e-04  -2.834718e-05  3.524833e-02  9.460769e-04
 -5.709657e-05  4.380606e-06  -1.887439e-04  -6.545111e-06  -1.318601e-02  -4.861784e-04
 7.322632e-05  -1.178801e-05  -8.867857e-05  -2.353556e-05  5.078471e-02  3.324185e-03
 -5.427775e-05  2.695975e-05  1.112745e-04  3.296883e-05  6.111548e-03  2.517498e-03
 -1.721931e-04  -3.312726e-05  -5.359409e-05  1.582658e-05  -2.388994e-02  -2.551859e-03
 9.921635e-05  4.046531e-06  -1.949412e-04  -2.860191e-05  7.447339e-02  5.737581e-03
 -1.804800e-04  -2.378898e-05  1.278430e-04  6.784865e-07  -1.364235e-02  -5.230587e-04
 -1.635123e-04  -6.487260e-06  5.397111e-05  3.423969e-05  -1.551369e-02  -1.579082e-03
 1.158128e-04  -1.026454e-05  2.164505e-05  1.165809e-05  -2.484016e-02  -1.190446e-03
 2.044331e-04  1.350292e-05  2.603741e-04  3.878011e-06  6.104269e-02  -1.252028e-04
 8.578807e-05  6.909718e-06  -1.043168e-04  4.525486e-06  1.022497e-01  1.702739e-04
 -2.950471e-05  2.743052e-06  -2.289043e-04  1.182680e-06  -9.526266e-02  1.590619e-03
 -3.253931e-05  1.284960e-05  -1.324588e-04  2.127984e-05  7.705056e-02  -3.291407e-04
 -1.271174e-04  9.058782e-06  1.132521e-04  -3.763781e-06  5.550365e-02  -4.222630e-04
 3.202944e-05  -2.308529e-05  7.231412e-05  4.431416e-06  -1.077325e-02  -7.473530e-04
 -5.009842e-05  -1.020265e-05  -3.135714e-04  -5.571122e-06  4.514776e-02  -4.179779e-03
 3.472089e-05  -1.586096e-05  1.715031e-04  -2.444779e-05  -8.845719e-02  1.096286e-03
 -2.077606e-04  1.404520e-05  3.417662e-04  -7.217373e-06  9.721017e-02  4.310716e-03
 1.810501e-04  -6.857385e-06  3.724628e-05  -1.959176e-06  -2.545160e-02  5.257914e-04
 2.309717e-04  7.715801e-06  -2.039827e-07  -2.848587e-05  -1.680644e-02  -3.488961e-03
 2.568867e-05  1.458466e-05  2.754491e-04  8.446523e-06  4.571718e-02  1.880981e-03
 -2.357483e-04  3.493728e-05  -6.887395e-05  1.017738e-05  2.866497e-02  5.693083e-03
 2.103995e-04  9.788288e-06  3.287146e-04  -1.869911e-05  -1.408328e-01  -3.568158e-04
 -1.261586e-04  -1.942638e-05  1.370594e-04  1.512273e-05  1.994659e-02  8.276969e-05
 3.796356e-05  5.242567e-06  -3.118454e-04  1.978571e-05  8.289580e-02  -1.822744e-03
 3.069783e-05  1.658439e-06  3.308391e-05  2.248055e-05  9.699350e-02  -2.760774e-03
 -1.670918e-04  -6.000775e-06  -1.552920e-04  -9.083102e-06  8.751858e-03  -9.674762e-04
 -8.553086e-05  -1.061662e-05  1.877153e-04  7.873674e-06  2.559742e-02  1.164811e-03
 1.886473e-04  1.648125e-05  -8.519382e-06  -1.012477e-05  1.048935e-01  4.452040e-05
 -1.397806e-04  -1.903988e-05  2.117941e-04  -7.737520e-06  7.270428e-03  2.865160e-03
 -3.332577e-04  9.512788e-06  7.522345e-05  2.195947e-05  1.768513e-02  -1.597559e-03
 -2.501581e-04  -9.374075e-06  -2.455885e-05  1.880674e-05  1.000549e-01  -1.341718e-04
 1.923974e-04  2.256552e-05  2.587198e-05  1.822986e-05  -6.660336e-02  7.505848e-06
 1.172751e-04  1.100818e-05  1.099458e-04  1.870357e-05  1.387177e-02  4.863833e-03
 -2.156413e-04  -6.981413e-06  1.669604e-04  1.853312e-05  3.837726e-02  1.439214e-03
 1.244204e-04  1.012189e-05  -1.489772e-04  -1.701175e-05  3.409075e-02  5.644158e-05
 5.543487e-05  1.432490e-05  -1.218384e-04  -2.517518e-05  5.224799e-02  8.402291e-04
 2.144064e-04  1.792465e-05  -2.313437e-05  8.811516e-06  -1.075722e-01  -5.760109e-03
 -2.292531e-04  8.049084e-06  -1.975442e-05  1.686940e-05  2.675648e-02  1.369889e-03
 3.471163e-05  3.001324e-06  5.570534e-05  -2.973800e-05  -4.756599e-02  8.278636e-04
 -2.515166e-05  1.273773e-05  1.069367e-04  -9.626913e-06  -9.467967e-02  8.946630e-04
 -7.446120e-05  -3.014308e-05  -1.971980e-04  1.147320e-06  3.376476e-02  -3.667394e-04
 -2.754883e-04  -5.117764e-06  -9.773163e-06  2.250181e-05  -6.162676e-02  -6.696890e-04
 -1.261126e-04  -5.142721e-06  4.618702e-05  -2.023756e-05  8.927458e-02  9.607864e-07
 -1.414181e-04  -1.580138e-05  -9.652115e-05  2.086517e-05  -1.004751e-02  -1.526592e-03
 1.487083e-04  2.524892e-05  4.450214e-05  3.372503e-06  -1.431022e-02  1.868440e-03
 -1.312687e-04  -9.352814e-06  -2.759365e-04  1.361524e-05  -5.449751e-02  -3.261995e-03
 -1.423534e-04  2.213811e-05  -4.295162e-05  1.768634e-05  -6.421685e-02  2.510826e-03
 2.528910e-04  1.388248e-05  4.260913e-05  1.120686e-05  3.932138e-02  3.899236e-03
 5.838187e-05  -1.079351e-05  -5.692184e-05  -8.076590e-06  -1.995637e-02  2.273696e-03
 -6.122990e-05  5.081480e-06  -1.713484e-04  6.396333e-07  -6.767476e-02  2.527260e-03
 1.953059e-04  -3.062306e-05  1.862078e-04  -9.293642e-06  -1.055069e-01  1.024701e-03
 -2.741825e-05  1.187707e-05  -7.125091e-05  5.672926e-06  -5.411685e-02  1.751067e-03
 3.038063e-04  7.137674e-08  -4.660009e-05  -4.606493e-06  8.353965e-03  3.028453e-03
 -1.781796e-04  -4.936105e-07  3.133395e-05  -2.193939e-05  1.030662e-01  -1.357432e-04
 6.916546e-05  1.975898e-06  5.146576e-05  -2.169647e-06  1.350167e-02  2.614305e-03
 -9.897594e-05  -4.494999e-06  2.687948e-05  -1.059513e-05  -4.859783e-03  -2.097788e-03
 1.268733e-05  1.359476e-05  2.969627e-05  -2.387926e-05  -3.666044e-02  2.521336e-04
 1.847063e-04  -1.507733e-05  9.112493e-05  1.542639e-05  2.985833e-02  -6.789241e-04
 8.763708e-05  3.949801e-06  1.364709e-04  -8.755723e-07  7.751626e-02  -4.508405e-03
 -1.284551e-06  9.360487e-06  1.336971e-04  9.167395e-06  -3.342146e-02  1.967217e-03
 1.914697e-04  4.420072e-06  -1.187404e-04  2.716258e-05  -1.165352e-01  3.555591e-03
 -1.826731e-04  1.935650e-05  2.037870e-04  2.227446e-05  1.427182e-01  -9.540896e-04
 -7.265285e-06  -6.074606e-06  -1.637797e-04  4.221327e-05  -1.395794e-01  -3.418613e-04
 1.940757e-05  5.220901e-06  1.423357e-04  -2.649027e-05  -2.735247e-02  2.152333e-05
 2.022220e-04  -3.290661e-06  1.054404e-04  2.853329e-05  -1.065998e-01  8.754975e-04
 -1.249707e-04  3.352818e-05  -1.189581e-04  7.166924e-06  1.262052e-01  -5.087564e-03
 -3.253880e-04  5.299764e-06  -9.349624e-05  2.407559e-06  6.051408e-03  -2.276711e-04
 1.303755e-04  -4.444294e-06  1.864659e-04  3.315380e-06  2.428998e-02  5.945456e-04
 -7.551890e-05  -1.766188e-05  4.229642e-05  6.597188e-06  -9.450388e-02  -1.175835e-03
 1.030823e-04  -2.311835e-07  2.271788e-04  -7.509075e-06  -5.426949e-02  -3.475226e-04
 7.617831e-06  1.052530e-05  2.924612e-04  -1.029013e-05  -6.923391e-03  -1.561991e-03
 4.314348e-05  -1.927643e-06  4.510959e-05  2.175837e-05  -2.578641e-03  -2.839757e-03
 4.261295e-04  -2.820460e-06  -3.012341e-05  1.321345e-05  -3.634879e-02  3.623108e-04
 2.008058e-05  -1.060108e-05  -4.047637e-05  1.285370e-05  1.138477e-02  -7.186725e-04
 -2.480479e-05  -2.201478e-06  -2.704202e-04  1.475800e-05  -2.229639e-02  -3.149320e-03
 1.622079e-04  -5.694373e-06  -1.726143e-04  -1.692548e-05  -8.434490e-02  -3.234286e-03
 6.163908e-05  6.927767e-06  2.529578e-04  4.199102e-06  -6.222410e-02  9.561733e-04
 1.962347e-04  -1.028412e-05  -3.159776e-04  -2.107798e-05  3.748462e-03  -3.179848e-04
 -2.540385e-04  9.132837e-06  -1.265032e-04  2.496112e-05  -1.286144e-02  -9.060456e-04
 2.752560e-05  1.786211e-05  1.529051e-04  -8.271262e-06  7.650660e-02  4.931314e-04
 9.766117e-05  2.031627e-05  2.380810e-04  -1.638064e-06  -7.731405e-03  1.474830e-03
 8.297170e-05  -5.409481e-06  -1.556713e-04  1.857471e-05  8.754337e-02  -2.506223e-03
 -3.537386e-05  -2.788073e-05  5.620778e-05  6.031337e-08  -1.500848e-02  -1.331306e-03
 8.059993e-05  1.564901e-07  -2.170545e-04  1.165170e-05  1.045861e-01  5.300532e-04
 -8.483209e-05  6.108164e-06  2.364021e-04  5.069121e-06  -2.144686e-02  2.458462e-03
 2.731785e-04  2.329153e-05  3.242098e-05  1.201913e-05  -3.284908e-02  -1.274371e-03
 -1.959070e-04  1.369449e-05  -9.784152e-05  2.048943e-06  6.830377e-02  -1.248107e-03
 5.856113e-05  2.257893e-05  -4.242045e-05  1.107786e-06  7.557556e-02  -3.360250e-03
 -7.245511e-05  2.939862e-07  3.313476e-05  5.544124e-06  -9.581201e-02  2.519617e-03
 -3.503662e-05  -1.282211e-05  -7.642845e-06  1.569271e-07  -9.608613e-02  4.914580e-03
 9.138005e-05  3.737312e-06  1.606572e-04  3.247434e-06  -1.975584e-02  -4.721869e-04
 -6.193074e-05  1.680422e-05  -1.858735e-04  3.819244e-07  5.667120e-03  -9.033562e-04
 9.908121e-05  -9.963880e-06  7.898999e-05  1.283681e-07  -6.938939e-02  -2.414773e-03
 3.365381e-04  -1.221708e-05  -3.802502e-04  2.080398e-05  -2.802265e-02  -1.041239e-03
 -1.286119e-04  1.778931e-05  1.194597e-04  2.980254e-07  7.481921e-02  4.151243e-03
 -1.801006e-04  4.885552e-06  -1.536445e-04  -1.902654e-05  -1.050337e-01  -3.105356e-03
 -8.087046e-05  1.871435e-05  -4.389119e-05  -2.982156e-05  3.624995e-02  1.317906e-03
 1.586218e-04  1.863173e-06  3.210291e-04  -2.848145e-05  -5.688297e-02  4.321615e-04
 8.525330e-05  -8.970342e-06  -5.545538e-06  1.997829e-05  -3.793057e-02  1.311027e-03
 -4.598831e-05  2.083163e-05  -1.326462e-04  2.121311e-06  -6.365886e-03  -1.435230e-03
 -5.277753e-05  2.755700e-05  5.088952e-05  2.014750e-06  5.838465e-02  1.948325e-03
 1.077521e-05  -2.211264e-05  5.518592e-05  2.508483e-06  1.013731e-01  -3.833380e-03
 1.480356e-04  1.068943e-05  9.117856e-06  4.958338e-06  4.466280e-02  2.420973e-03
 -1.212161e-04  7.830869e-06  -5.031816e-05  4.668551e-07  6.370005e-02  -2.543071e-03
 -1.599159e-04  -3.040297e-05  8.199611e-05  -2.074889e-05  6.045765e-02  -1.372385e-03
 1.304584e-04  -3.695730e-05  -1.198580e-04  1.422920e-05  -3.230630e-02  -2.359671e-03
 4.820894e-07  4.782779e-06  1.459210e-04  -2.863194e-05  7.862765e-02  -2.987955e-04
 -1.782012e-04  -2.979517e-05  3.001054e-05  1.762173e-05  5.777163e-02  1.122613e-03
 -1.741565e-04  -1.248347e-05  2.681096e-05  1.903970e-05  -3.246577e-03  1.418833e-04
 8.795131e-05  5.449939e-06  6.986828e-05  -7.615765e-06  -8.921701e-02  -2.169240e-04
 -4.382716e-05  -2.969752e-06  -9.411415e-05  -1.682382e-05  -8.008364e-02  2.672652e-04
 -7.643399e-05  2.479942e-05  -7.080098e-05  -1.703508e-05  -1.093378e-01  -1.493370e-03
 -9.905618e-05  1.581059e-05  2.230176e-05  5.452155e-06  9.172502e-02  -5.515466e-03
 1.402953e-04  -1.145438e-05  1.786347e-04  1.201274e-05  7.865151e-02  -3.576235e-03
 7.935277e-07  -1.654342e-05  -2.386729e-04  1.068964e-05  6.248374e-02  -1.519995e-03
 1.382120e-04  7.062531e-06  -2.141111e-04  1.041620e-05  6.051204e-02  -1.771465e-03
 -1.513192e-04  2.065161e-05  2.861881e-04  1.880749e-05  1.999748e-03  3.099953e-04
 7.489815e-05  -3.745176e-06  -2.077209e-04  1.950206e-05  1.384575e-02  4.798445e-03
 5.480619e-06  2.618276e-05  -1.717042e-04  -3.210788e-06  -7.205862e-03  1.641187e-03
 -1.075608e-04  -6.475910e-06  1.013309e-04  2.845618e-06  8.090178e-03  5.329325e-04
 -1.283529e-04  2.203255e-05  -2.688493e-04  -1.834864e-06  -2.108620e-02  5.599201e-03
 -2.587205e-04  1.172114e-05  1.966977e-04  3.118808e-05  1.840834e-02  -3.348972e-04
 -9.293866e-05  3.591307e-06  4.877141e-05  8.814966e-06  -1.007247e-01  -1.922053e-03
 -1.876807e-04  -1.052495e-05  9.558110e-05  -1.719248e-06  3.540681e-02  1.273026e-03
 1.458510e-05  2.777423e-07  -1.186974e-04  -4.694130e-06  -1.777967e-02  1.494800e-03
 -2.888389e-04  -1.027753e-05  -1.108589e-04  4.528301e-06  -5.124601e-02  -1.360815e-03
 -7.979410e-06  -3.269010e-05  -1.264072e-04  -1.432650e-05  8.241626e-02  -1.606546e-03
 -2.293140e-04  -8.162820e-06  -8.878756e-05  1.131639e-05  4.377903e-02  -1.070155e-03
 1.372376e-04  8.590040e-06  -1.793466e-05  3.867493e-05  -4.277942e-02  -4.312286e-03
 2.465395e-04  -2.880995e-05  1.479774e-04  2.546955e-05  -4.175768e-02  -2.927943e-03
 3.858925e-04  1.472715e-05  -2.250173e-04  4.324462e-06  -2.236207e-02  1.109331e-03
 -6.583998e-05  3.486110e-05  -3.656808e-06  1.636817e-07  -6.497487e-02  -6.775623e-04
 5.004092e-05  5.034098e-06  -7.761555e-05  1.848905e-06  -5.042120e-02  -1.877671e-04
 -3.001130e-04  5.841365e-06  -7.703174e-05  1.294178e-05  9.093362e-02  -3.571442e-03
 1.317264e-04  5.083736e-06  -1.600525e-04  -1.441336e-05  -2.526961e-02  1.888564e-03
 -1.360125e-05  -1.030119e-05  -1.234100e-04  -1.367624e-05  -9.626002e-03  -3.421650e-04
 2.154492e-04  8.742934e-06  8.427773e-05  6.535247e-06  -7.585247e-02  4.700888e-04
 3.913644e-05  5.927952e-06  3.524260e-04  -1.464250e-05  1.100546e-01  2.215880e-03
 -2.334130e-04  -1.421641e-05  -4.318246e-05  -8.368995e-06  3.105929e-02  1.497846e-03
 -5.209380e-06  -7.692570e-06  -2.319768e-04  -1.416353e-05  -1.285994e-02  2.939812e-03
 3.038186e-06  1.292862e-05  2.581910e-05  -2.848940e-06  2.184115e-02  -3.377618e-03
 -1.203810e-04  5.657744e-06  -1.916753e-04  3.351397e-05  4.502208e-02  2.093157e-03
 1.085347e-04  8.399037e-06  5.348831e-05  1.036391e-05  3.883419e-02  3.822792e-04
 1.465791e-04  2.335550e-05  -1.052098e-04  -1.056642e-05  -1.277414e-02  1.149860e-03
 2.469791e-05  -1.032530e-05  2.055068e-04  1.084564e-05  -6.450110e-02  -1.909904e-04
 -7.029195e-05  2.813685e-06  -7.523294e-05  -1.295106e-06  2.940193e-02  4.346657e-03
 8.617297e-05  2.526257e-07  -8.689478e-05  -1.383030e-05  -4.903412e-02  -3.633435e-03
 -1.020387e-04  -2.825255e-05  -2.039861e-04  6.880749e-06  -7.754460e-02  -1.312893e-03
 -1.686712e-04  3.287868e-06  2.444960e-05  -1.247382e-05  1.831950e-02  1.491674e-03
 -1.402180e-04  -1.362285e-05  2.063511e-06  -3.143751e-06  2.834526e-02  -7.125616e-03
 6.039383e-05  2.650802e-06  -1.989182e-04  2.189081e-05  -9.859862e-02  -2.587069e-04
 -1.579720e-06  3.543248e-05  2.654285e-04  -3.849151e-05  4.235331e-02  1.926518e-04
 1.813815e-07  7.413413e-06  -1.714071e-04  -2.627474e-05  -9.440315e-02  -6.793638e-03
 1.599642e-04  6.284316e-06  -5.869691e-05  1.407244e-05  2.749126e-02  2.122049e-04
 -3.529355e-05  3.782850e-06  -1.766811e-05  2.945988e-06  7.701570e-03  3.163308e-03
 -7.619598e-05  -1.786273e-05  -2.025429e-04  1.042645e-05  2.759640e-02  2.637358e-03
 -1.461413e-04  -1.554883e-05  -1.650709e-04  -8.319442e-06  -2.136072e-02  -1.524048e-04
 1.471387e-04  8.503605e-06  -2.321139e-04  4.504015e-06  -6.578432e-02  -4.108007e-03
 -4.858726e-05  7.715451e-06  5.638944e-04  1.457095e-05  -9.830443e-03  2.981067e-03
 6.017785e-05  -1.734466e-05  -1.550812e-04  2.188544e-05  -2.138894e-02  2.783819e-03
 5.475277e-05  -1.741130e-05  8.210410e-06  1.516519e-05  1.202997e-01  1.344927e-03
 6.582168e-05  -6.496611e-06  4.346045e-05  -7.180611e-06  9.701645e-02  2.693470e-04
 5.394700e-05  -2.025016e-05  -4.221437e-06  1.284542e-05  -5.054059e-02  3.170423e-03
 -6.209083e-05  -1.387639e-05  -1.066505e-04  -1.457332e-05  -4.746073e-02  2.298154e-04
 7.329428e-05  -1.970146e-05  1.742811e-04  6.168231e-06  5.711636e-02  2.300550e-03
 2.882335e-05  -9.130458e-06  -6.758820e-05  4.171705e-05  -1.853991e-02  -4.838424e-03
 1.681840e-04  8.257958e-06  -1.480672e-05  2.904398e-05  -8.541955e-02  -1.256998e-03
 -4.289906e-05  1.436892e-05  -1.951303e-04  1.395382e-05  4.992957e-02  4.062660e-04
 -2.974892e-05  -3.629957e-05  -4.307242e-05  1.445893e-05  5.629217e-02  -1.784910e-03
 -1.784094e-05  -7.215854e-07  5.408145e-05  7.245371e-07  9.317539e-02  6.101275e-04
 -2.742776e-04  -3.386361e-05  -1.495955e-05  5.906679e-06  -6.751630e-02  1.163448e-04
 -2.324323e-04  1.352909e-05  1.158570e-04  2.331114e-05  2.627492e-02  -3.996797e-03
 -6.808804e-05  -1.385782e-06  -1.815675e-04  -3.524397e-05  -3.493163e-02  -6.912704e-04
 2.064676e-04  -8.516384e-06  2.038185e-04  1.418467e-05  1.106291e-01  -9.147468e-04
 -3.625506e-05  2.970897e-05  6.741356e-05  -4.850848e-07  -6.182429e-02  1.265848e-03
 -8.952390e-05  -1.143919e-05  1.694364e-04  -6.735839e-06  1.720788e-02  -1.430827e-03
 -2.295527e-04  3.948448e-05  2.895338e-05  3.840193e-06  -3.323112e-02  -3.650670e-03
 6.292738e-05  -1.019349e-05  -5.289371e-06  3.061043e-05  -4.659015e-02  1.753571e-03
 1.801308e-04  -1.084886e-05  8.587363e-05  1.887135e-05  -2.183657e-02  1.048044e-03
 -1.933776e-04  1.887039e-05  -2.824381e-05  -1.946964e-05  -3.364349e-02  -6.858468e-05
 1.037010e-04  -3.304459e-05  1.842106e-04  3.650805e-06  -8.488367e-02  5.446805e-04
 -2.010448e-05  -2.179463e-05  1.134786e-04  -1.835476e-05  -4.719604e-02  1.173801e-04
 -2.705996e-05  3.379301e-05  2.361692e-04  4.234366e-05  3.869616e-02  -2.102328e-03
 -1.437059e-04  -2.184158e-05  -2.299969e-04  -2.365506e-05  5.019274e-02  1.424658e-03
 -5.465952e-05  -2.080225e-05  6.556885e-06  1.220709e-05  -1.059446e-01  3.707507e-04
 -2.118476e-04  2.752083e-05  3.678563e-05  1.069870e-05  1.315311e-01  1.824105e-03
 5.875670e-05  1.806167e-05  1.418343e-04  2.312310e-06  2.549476e-02  4.008577e-03
 2.055976e-04  -2.105435e-05  3.922887e-05  -1.222286e-05  6.906879e-02  2.140176e-03
 2.225859e-04  5.964852e-06  -2.546496e-04  -3.623355e-06  -2.006403e-03  -8.647131e-04
 -3.071851e-04  -2.249882e-05  -3.008361e-04  -1.515573e-06  3.758205e-02  -6.558541e-04
 1.664024e-04  -5.113492e-06  -2.133237e-05  6.411862e-06  2.058940e-02  -2.812350e-03
 -1.975343e-04  1.167459e-05  -2.705638e-05  1.367907e-05  6.152629e-02  -1.563094e-03
 1.210359e-04  -5.302739e-05  -2.107236e-04  1.886705e-06  -1.342825e-02  4.665302e-05
 3.650876e-04  2.279358e-05  1.606890e-04  -4.381179e-05  -7.527748e-02  3.599434e-03
 -1.575354e-04  -2.320092e-05  9.734813e-05  2.452580e-05  3.983224e-02  -1.333767e-03
 2.574154e-04  1.350562e-05  3.394321e-04  3.995669e-07  8.299494e-02  9.894222e-04
 7.967742e-05  4.017699e-06  4.954294e-05  3.716026e-05  1.072219e-01  2.006303e-03
 -1.303151e-04  1.326745e-05  8.915566e-06  -8.053028e-06  3.849169e-02  -1.653629e-03
 4.740581e-05  1.656703e-05  1.990371e-04  4.568797e-05  -2.091516e-02  -2.018070e-04
 1.640120e-04  -1.458258e-05  1.869745e-04  1.960387e-05  2.583620e-02  3.399975e-03
 3.489543e-07  -6.483588e-06  2.532175e-04  1.317035e-05  8.922851e-03  -3.551976e-03
 1.274814e-05  -1.220207e-05  1.451902e-04  -1.351467e-05  -6.984411e-03  7.157309e-04
 6.661393e-05  1.446048e-05  -2.959355e-05  -3.194740e-05  4.961996e-02  -2.061603e-03
 8.664424e-05  -3.931897e-06  -1.444689e-04  -3.110136e-07  -3.281227e-02  -3.416669e-03
 -3.164751e-05  1.740221e-05  1.296279e-04  3.878912e-06  -2.528747e-02  -1.325809e-03
 1.890812e-04  -1.505910e-06  5.326419e-05  1.606161e-05  -8.264001e-03  2.638687e-04
 1.087479e-04  -2.421942e-05  -9.026384e-05  -2.305447e-05  4.558112e-02  -3.482393e-04
 -3.707368e-05  -2.996896e-06  2.050834e-04  -7.059429e-06  -4.621753e-02  7.823228e-04
 6.098536e-05  7.401866e-06  1.670252e-04  1.248284e-05  4.116353e-02  -3.890068e-04
 -2.327405e-04  -1.849841e-05  -1.943563e-04  3.722579e-06  -5.672879e-02  -1.951327e-03
 2.610174e-04  1.439285e-05  6.027859e-06  7.648155e-06  4.264030e-02  2.025058e-03
 7.127371e-05  -3.897629e-05  -6.834483e-05  1.902123e-05  5.977396e-02  -3.595875e-03
 -2.180394e-05  -1.289034e-05  7.183757e-05  5.320521e-06  1.485648e-02  2.715257e-04
 -1.189181e-04  -1.136720e-05  9.556579e-05  2.065467e-05  2.725922e-03  -1.527177e-03
 -2.476401e-04  6.455991e-07  9.317294e-05  1.967717e-05  2.713884e-03  3.154958e-03
 3.644961e-04  -5.029233e-06  -3.712897e-04  1.165803e-05  4.873230e-02  2.551380e-03
 7.380139e-05  2.025150e-05  -1.913031e-04  2.336225e-06  2.525348e-02  3.065505e-03
 -6.677699e-06  4.869203e-06  -7.497731e-05  6.499367e-06  -7.159418e-02  -7.396674e-03
 3.232038e-04  -5.007272e-06  1.509087e-04  -3.983839e-05  -8.288475e-02  -3.689127e-03
 -1.535774e-04  5.726819e-06  -2.787863e-05  3.375383e-05  1.268324e-02  -9.617443e-05
 -1.472487e-04  1.514863e-05  -1.949676e-06  -1.234971e-05  -3.238621e-02  -1.988933e-03
 7.227887e-05  -3.190407e-05  2.386699e-04  -1.148992e-05  -2.588763e-02  2.721845e-03
 -1.517338e-04  8.041868e-06  5.188224e-05  1.406977e-05  -6.177689e-02  9.408531e-04
 1.576338e-04  -5.586159e-06  -2.982623e-04  -2.088310e-05  -3.896494e-02  -1.667352e-03
 3.782048e-05  -1.580165e-05  1.564068e-04  -1.574784e-05  -4.714218e-02  7.416513e-03
 2.705548e-04  -1.395381e-05  4.938825e-05  2.075493e-05  -6.774241e-02  2.541300e-04
 5.823320e-05  -2.994450e-05  -1.321566e-04  9.033439e-06  -1.360310e-01  -1.363987e-03
 1.373804e-04  8.512449e-06  1.452198e-04  2.041531e-05  -6.973845e-02  -9.879234e-04
 -1.184908e-04  -8.243603e-06  -8.546935e-05  -1.650622e-05  -7.498191e-03  3.729666e-04
 1.648814e-04  -8.103239e-07  1.122047e-04  8.696925e-06  5.590319e-02  5.623264e-03
 -2.251832e-04  -1.952795e-05  2.610454e-05  3.766391e-05  -1.120191e-02  3.926599e-04
 6.551107e-05  2.196214e-05  2.024851e-04  -7.099418e-06  5.662773e-02  -2.354479e-03
 2.263949e-04  -5.218229e-06  2.015934e-05  -2.731216e-05  3.165282e-02  -2.146048e-03
 6.752080e-05  -6.138590e-06  2.359644e-04  -2.826092e-05  -8.208881e-03  1.784185e-04
 -4.401607e-05  1.456100e-05  -1.864475e-04  8.485129e-06  -3.565998e-02  1.520532e-04
 -4.443061e-06  -2.322633e-06  -1.063945e-04  2.851064e-05  3.338917e-02  6.406470e-03
 -1.399430e-04  8.744946e-06  2.360637e-05  2.069836e-05  -1.398192e-01  -4.418991e-03
 -8.910859e-05  -1.412872e-05  -4.920994e-05  -1.489924e-05  7.943006e-02  -4.192024e-03
 -5.593369e-05  -1.234114e-05  -1.444551e-04  1.141387e-06  -2.581114e-02  2.656218e-03
 6.950396e-05  -2.004343e-05  -1.355419e-04  3.468298e-06  -7.359059e-03  -1.939696e-04
 1.134323e-04  6.339128e-06  -4.729441e-05  -5.966856e-06  -8.777381e-02  -2.192674e-03
 2.286624e-05  2.609537e-06  4.067130e-05  6.943783e-06  2.048184e-02  -4.488729e-03
 6.418872e-05  -4.970753e-06  2.895084e-04  7.653567e-06  -1.813350e-02  -1.726337e-03
 1.300894e-04  -2.189692e-05  -1.153173e-04  2.984651e-05  -3.479281e-02  3.394663e-03
 1.050238e-04  -2.138933e-05  -1.138141e-04  8.958075e-06  -2.467050e-02  1.115886e-03
 1.448444e-04  -2.870709e-06  -1.126851e-04  -2.401909e-05  -1.935847e-02  4.056083e-03
 -4.192619e-04  7.135681e-06  8.228070e-05  -1.554323e-05  1.229459e-02  -3.642590e-04
 -1.397761e-04  -1.429127e-06  4.720193e-05  1.012159e-05  -8.531644e-02  -8.820285e-04
 -6.667333e-05  -8.869470e-06  5.113483e-05  8.308686e-06  3.727378e-02  -1.581432e-03
 1.717757e-05  -1.901556e-05  8.554462e-05  1.244872e-05  2.546922e-02  8.683369e-05
 -1.033234e-05  8.607803e-06  2.342570e-04  -1.426685e-05  7.346063e-02  5.316698e-04
 1.948263e-05  -8.623378e-06  3.098489e-05  -2.432659e-05  1.044917e-01  4.103916e-05
 2.263717e-04  -3.107824e-06  3.451674e-04  -8.546701e-06  -2.381025e-02  -7.930551e-04
 -1.927142e-04  2.982119e-05  -7.607788e-05  9.136907e-06  3.954166e-04  -3.928128e-03
 1.622785e-04  -1.078050e-05  -1.654928e-04  1.113953e-05  5.393077e-02  -2.005799e-03
 5.606616e-05  1.624297e-05  2.187812e-04  -2.031130e-06  7.861227e-02  -4.024008e-04
 1.849191e-05  4.708658e-07  -3.539177e-04  -2.405671e-05  -4.481248e-03  1.639509e-03
 -2.070842e-04  -5.833837e-06  5.883031e-05  7.393943e-06  1.153862e-01  -1.234885e-03
 -1.711870e-04  1.508181e-05  1.149110e-04  -2.917856e-05  2.472655e-03  7.702065e-04
 -2.307871e-04  2.169674e-05  -1.049835e-04  -1.143445e-05  -5.319887e-02  -1.488005e-03
 -2.835648e-04  -6.713064e-06  -8.493623e-05  4.202030e-05  1.620665e-02  1.457426e-03
 4.489144e-05  1.909865e-07  -2.768720e-04  -1.969769e-05  -2.447539e-02  3.028874e-03
 1.906711e-05  -9.381848e-06  -2.280656e-05  2.399613e-06  3.720540e-02  -3.156519e-03
 -3.547810e-05  1.556555e-05  5.807742e-05  1.156741e-05  -9.292641e-02  2.056230e-03
 2.073469e-04  1.576857e-05  -1.154421e-04  2.253123e-05  -8.001951e-02  -1.276392e-04
 -2.137100e-04  1.736758e-05  4.216682e-04  -1.293684e-05  -8.895473e-02  1.395522e-03
 1.615772e-04  8.163905e-06  9.659823e-05  6.630873e-06  3.056231e-02  3.461001e-03
 -8.882660e-05  -1.021775e-05  2.470821e-04  6.658094e-06  -1.267608e-02  -3.604078e-03
 -1.887689e-04  -5.768964e-07  -4.511872e-05  -2.195608e-05  2.036800e-02  8.899557e-04
 -4.669064e-04  1.093632e-05  9.675797e-05  -3.665278e-06  1.431023e-02  1.682162e-03
 -6.149751e-05  1.266057e-05  -9.934608e-05  2.811249e-05  -1.075572e-01  1.319322e-03
 5.955361e-05  -1.558077e-06  1.266133e-04  -1.758235e-05  4.953797e-02  1.585035e-03
 -4.669250e-04  1.642047e-05  2.463933e-05  -1.942980e-06  1.645001e-02  -6.614696e-04
 2.207295e-04  1.110430e-05  1.911794e-05  -1.532111e-05  2.800590e-02  3.138509e-03
 7.101622e-05  -1.125731e-05  -4.318354e-05  -7.626488e-06  3.862283e-02  5.674516e-03
 6.498781e-05  2.766282e-05  1.366151e-04  -2.650044e-05  -3.322110e-02  -2.415267e-04
 2.407213e-04  -4.040012e-05  -4.863794e-05  3.021794e-05  -3.894700e-02  2.371974e-03
 2.701742e-04  -1.137222e-05  -3.331515e-04  4.089287e-05  -1.215942e-02  3.049388e-03
 -1.050651e-04  2.320633e-06  7.733126e-05  1.381448e-05  -2.872095e-02  -5.170708e-03
 -8.268782e-05  1.018794e-05  2.755720e-04  9.002050e-06  -5.413748e-02  -4.677751e-04
 1.520761e-04  1.642265e-05  -6.053351e-05  7.673630e-06  -4.556791e-02  -1.508721e-03
 -7.102485e-07  9.209245e-06  -1.025541e-04  -1.326343e-06  1.237212e-02  4.226067e-03
 -2.324793e-04  -1.083285e-05  2.627352e-05  2.164283e-05  -2.293252e-02  2.642174e-03
 5.141781e-04  -4.630327e-06  2.292935e-04  -6.329284e-06  6.829027e-02  4.306773e-04
 9.760630e-05  9.369922e-07  7.581554e-06  -1.494645e-05  1.050765e-02  5.108819e-05
 3.541663e-04  -1.527694e-05  2.796462e-04  -7.606079e-06  5.272947e-02  3.197297e-03
 -1.394271e-04  3.396662e-05  -1.065196e-04  -1.067410e-05  3.734931e-02  1.406371e-03
 1.060727e-04  -7.998982e-06  2.656675e-04  4.661389e-06  -1.669885e-02  1.290589e-03
 1.153718e-04  1.570667e-05  1.958404e-06  6.008771e-07  -2.370821e-02  1.753030e-03
 -2.311902e-04  4.944606e-06  6.782225e-05  -1.229022e-05  7.018344e-02  -3.606175e-03
 1.295515e-04  -6.548294e-06  1.736735e-04  -8.672672e-06  4.449463e-02  4.057036e-04
 -1.395967e-04  -2.338569e-05  4.442487e-04  3.466974e-06  -7.648120e-02  1.971619e-03
 7.027997e-05  -2.632430e-05  -1.214499e-04  1.845452e-05  1.291411e-01  4.238140e-03
 1.072691e-04  -6.510419e-06  2.982532e-05  -2.060187e-05  5.871038e-02  -4.080192e-03
 2.060838e-04  -1.837720e-06  -7.380837e-05  2.158504e-05  -1.412360e-02  -3.533606e-03
 1.214629e-04  1.418388e-05  2.828225e-04  1.814879e-05  2.265995e-03  -1.984199e-04
 -5.176060e-05  1.152239e-05  1.116738e-04  1.270692e-05  -7.969147e-03  5.146639e-03
 -1.176074e-04  -2.966413e-05  2.984917e-05  1.580666e-05  -3.388941e-02  -4.158150e-04
 -2.487494e-04  2.565293e-05  -4.588487e-05  5.214864e-06  -1.101815e-01  2.323318e-03
 -6.300986e-05  1.399541e-05  -1.198104e-04  6.434880e-06  -1.303666e-01  -1.898975e-04
 2.299841e-04  -4.440920e-06  -2.440848e-05  -1.677039e-05  1.239419e-01  9.025417e-04
 2.069189e-04  -2.337668e-06  -1.520258e-05  1.836200e-07  2.263726e-02  -4.982258e-03
 1.897124e-04  -6.635506e-06  1.721712e-04  -3.809300e-06  5.616503e-03  2.459874e-03
 1.152079e-04  -1.540476e-05  3.564802e-05  -1.194563e-05  2.147800e-02  3.406798e-03
 8.601979e-06  1.034364e-05  2.470953e-04  2.098441e-06  4.584952e-03  4.401059e-04
 -2.441877e-04  -1.313284e-05  1.105220e-05  -2.686066e-05  -9.419783e-03  3.623942e-04
 -2.387484e-04  9.231823e-06  -1.913684e-04  -5.841372e-06  1.438679e-02  2.040180e-03
 2.388881e-04  -1.814324e-05  -7.912826e-05  1.408279e-05  -9.070131e-02  -2.121254e-03
 -7.363504e-05  -6.327642e-06  8.275277e-05  1.377836e-05  6.677851e-03  -2.206243e-03
 2.014271e-04  2.115299e-05  -2.045752e-05  -1.338615e-05  4.056325e-02  -2.894523e-03
 9.474431e-05  2.805835e-05  4.421240e-05  6.937058e-06  -1.974422e-02  -3.764547e-04
 -2.357908e-04  2.906275e-06  1.812226e-04  2.335533e-06  5.683066e-03  -1.660594e-04
 -2.929298e-05  -4.333630e-06  -2.064548e-05  5.302238e-06  -1.694434e-02  -3.700455e-03
 -2.298272e-04  3.506133e-06  -1.866364e-04  -5.063061e-07  6.836678e-03  1.392597e-03
 -4.928427e-05  -1.408635e-05  -3.918702e-05  1.385133e-05  -5.008046e-02  1.315756e-03
 5.520990e-05  -2.295505e-05  -1.129119e-04  1.976571e-05  1.671276e-03  -3.411968e-03
 5.887007e-06  7.483989e-06  -1.387373e-04  1.470016e-05  4.917824e-02  -1.154409e-03
 8.722110e-05  -1.284688e-05  2.173472e-04  2.507517e-05  3.698332e-02  3.232867e-03
 3.849709e-05  -1.324526e-07  4.860534e-06  -1.747712e-06  -4.098838e-02  -5.175174e-03
 1.841930e-04  2.122855e-05  3.831669e-05  -1.855866e-05  -7.091071e-02  -2.294908e-03
 1.450566e-05  -4.413566e-06  -4.485932e-05  -1.202497e-05  -5.962841e-02  -1.079962e-03
 -9.710067e-05  -5.502486e-06  2.197165e-06  -3.004336e-05  4.742972e-02  -1.362080e-03
 1.559141e-04  2.295716e-06  -1.594079e-04  2.404599e-05  8.267564e-02  5.881406e-04
 -3.928634e-06  6.272139e-06  -1.782855e-04  1.584294e-06  -3.767697e-02  -3.334247e-03
 -2.014030e-04  -4.805511e-06  3.056467e-04  3.139419e-05  -1.018084e-01  9.775680e-04
 -4.833389e-05  -3.435559e-05  2.184454e-04  -2.160231e-06  1.018173e-01  8.704531e-04
 -8.836454e-05  -7.238374e-07  -8.916443e-05  2.555491e-06  -6.384893e-02  -1.941234e-03
 4.945407e-05  6.461076e-06  7.813193e-06  -1.708550e-05  4.359096e-02  -3.997802e-03
 1.379264e-04  -1.571737e-05  8.997742e-06  8.739761e-06  3.121296e-02  2.443181e-03
 1.320146e-04  7.764515e-06  5.225659e-05  8.094848e-06  -8.041467e-03  -5.503485e-04
 2.025501e-05  -1.304473e-05  -1.974067e-04  -2.934771e-05  -8.506049e-02  -3.912754e-03
 -9.106809e-05  3.470324e-06  5.497095e-05  -2.060131e-05  5.028237e-02  1.814810e-03
 6.591450e-05  2.227895e-06  6.647242e-05  -6.375542e-06  -6.973206e-03  -3.731398e-03
 -2.713773e-05  -1.803114e-05  1.379822e-04  -1.342333e-07  -3.125622e-04  -1.702788e-03
 2.115996e-04  2.582313e-05  -2.088953e-04  -3.001149e-06  -8.834334e-02  -1.033000e-03
 -2.255052e-05  -6.553887e-06  2.635617e-04  2.333609e-05  2.681495e-02  -2.913942e-04
 -9.993418e-05  -9.461104e-06  -2.963998e-04  2.947504e-06  9.169185e-02  -3.626131e-03
 5.561917e-05  -3.273533e-06  -6.851368e-06  4.522814e-05  2.023800e-02  4.388113e-04
 8.144238e-05  -1.591634e-05  2.023968e-04  -2.072655e-07  1.504097e-02  1.216229e-03
 3.117188e-05  -8.839230e-07  -2.796256e-04  1.730413e-05  -8.876822e-02  9.838020e-04
 -2.200375e-04  1.351036e-05  -3.076812e-04  7.054752e-06  -1.195407e-01  3.026070e-03
 1.751575e-05  -1.753350e-05  -8.281435e-06  1.882467e-05  -8.969479e-03  -3.325678e-03
 2.160997e-04  -2.611349e-06  7.076779e-05  1.498935e-05  2.697888e-02  5.907104e-03
 1.687482e-05  6.299650e-07  9.803674e-05  3.604200e-06  -4.251317e-02  2.368100e-03
 1.771198e-04  1.581723e-05  1.797125e-04  -3.653387e-06  4.791835e-02  1.083563e-03
 1.855444e-04  -1.009103e-05  4.436123e-05  -4.971099e-06  -8.390395e-02  1.989940e-03
 -2.091341e-04  -4.541415e-06  -2.007101e-04  -1.085449e-05  1.233891e-01  -1.313119e-03
 -1.222149e-04  -1.962369e-05  1.034722e-04  -9.005012e-06  7.510583e-02  -2.560669e-03
 -3.042221e-05  2.305509e-05  2.619937e-04  -1.968949e-05  4.114461e-02  -9.351529e-04
 -1.227039e-04  6.214858e-06  5.655782e-05  -4.012079e-05  -4.381793e-02  -1.061540e-03
 8.333952e-05  1.749829e-05  -3.604933e-04  -2.197652e-05  1.961340e-02  2.786054e-03
 3.639081e-05  1.158427e-05  2.074514e-04  5.933399e-06  -6.086756e-03  -2.018027e-03
 1.152583e-04  3.598428e-06  2.191813e-04  -3.910116e-05  4.623418e-02  -1.419332e-03
 2.656619e-05  -1.204992e-05  -3.072039e-04  1.378981e-08  -2.255861e-02  -1.791486e-03
 6.869619e-05  -9.420442e-06  -2.447200e-04  1.459941e-05  5.893732e-02  -6.884463e-04
 9.082223e-06  6.957061e-06  1.195760e-04  5.377353e-06  -2.945143e-02  -2.130355e-03
 1.339399e-04  7.907946e-07  1.454006e-04  9.269115e-06  -7.205637e-02  -1.592058e-03
 1.219926e-04  4.872938e-06  9.757321e-05  4.181778e-05  -9.123973e-02  -7.595048e-04
 -1.146078e-04  3.532184e-06  5.199202e-05  -2.905351e-06  -3.624723e-02  -9.568115e-04
 -8.583005e-05  -2.915606e-06  5.039927e-05  -1.184086e-05  4.627745e-02  -3.397390e-03
 9.809694e-05  1.999090e-05  2.412545e-04  1.424471e-05  5.254674e-02  -1.885920e-03
 -8.433386e-05  1.274649e-05  1.126036e-04  2.994949e-06  -4.695643e-02  3.001008e-03
 -1.522668e-04  -4.540405e-06  -1.638107e-04  1.791135e-05  -4.894022e-02  1.585293e-03
 -3.199868e-06  2.846100e-05  1.426901e-04  -3.761362e-05  1.363816e-02  1.272111e-03
 1.806465e-04  6.025212e-06  -1.773257e-04  -3.498477e-06  7.544842e-02  6.829735e-04
&end
